<?xml version="1.0" encoding="UTF-8" standalone="no"?>
<!-- Created with Inkscape (http://www.inkscape.org/) -->

<svg
   xmlns:dc="http://purl.org/dc/elements/1.1/"
   xmlns:cc="http://creativecommons.org/ns#"
   xmlns:rdf="http://www.w3.org/1999/02/22-rdf-syntax-ns#"
   xmlns:svg="http://www.w3.org/2000/svg"
   xmlns="http://www.w3.org/2000/svg"
   xmlns:sodipodi="http://sodipodi.sourceforge.net/DTD/sodipodi-0.dtd"
   xmlns:inkscape="http://www.inkscape.org/namespaces/inkscape"
   width="156.87544mm"
   height="180.00452mm"
   viewBox="0 0 156.87544 180.00452"
   version="1.1"
   id="svg8"
   sodipodi:docname="coriander.svg"
   inkscape:version="0.92.3 (2405546, 2018-03-11)">
  <defs
     id="defs2" />
  <sodipodi:namedview
     id="base"
     pagecolor="#ffffff"
     bordercolor="#666666"
     borderopacity="1.0"
     inkscape:pageopacity="0.0"
     inkscape:pageshadow="2"
     inkscape:zoom="0.49497475"
     inkscape:cx="167.72023"
     inkscape:cy="424.99697"
     inkscape:document-units="mm"
     inkscape:current-layer="g826"
     showgrid="false"
     inkscape:window-width="1920"
     inkscape:window-height="1001"
     inkscape:window-x="-9"
     inkscape:window-y="-9"
     inkscape:window-maximized="1"
     fit-margin-top="0"
     fit-margin-left="0"
     fit-margin-right="0"
     fit-margin-bottom="0" />
  <metadata
     id="metadata5">
    <rdf:RDF>
      <cc:Work
         rdf:about="">
        <dc:format>image/svg+xml</dc:format>
        <dc:type
           rdf:resource="http://purl.org/dc/dcmitype/StillImage" />
        <dc:title></dc:title>
      </cc:Work>
    </rdf:RDF>
  </metadata>
  <g
     inkscape:label="Layer 1"
     inkscape:groupmode="layer"
     id="layer1"
     transform="translate(-11.098741,-19.661036)">
    <g
       id="g826"
       transform="matrix(0.95018435,0,0,0.95018435,-0.25030164,-29.600929)">
      <path
         style="fill:#8eb941;stroke-width:0.35277778"
         d="m 99.432937,240.63464 c 0,-0.15221 -0.62478,-0.62789 -1.388399,-1.05707 -2.083689,-1.1711 -2.824473,-2.64318 -3.073584,-6.10779 -0.116388,-1.61876 -0.426723,-3.79718 -0.689631,-4.84095 -0.262908,-1.04377 -0.393157,-2.03506 -0.28944,-2.20288 0.103713,-0.16781 0.02163,-1.53632 -0.182386,-3.04113 -1.064229,-7.84923 -2.205024,-19.58253 -2.444041,-25.1374 -0.308385,-7.16696 -0.89383,-11.31472 -2.071631,-14.67712 -0.777502,-2.2196 -1.173082,-2.87424 -1.965685,-3.25295 -1.384519,-0.66152 -4.220659,0.0412 -5.639863,1.39752 -0.581462,0.55568 -1.161083,1.01033 -1.288044,1.01033 -0.536208,0 -3.40752,3.17036 -4.792518,5.29166 -0.823426,1.26118 -1.83484,2.59795 -2.247594,2.9706 -0.74375,0.67148 -0.75922,0.66914 -1.731736,-0.26259 l -0.981284,-0.94013 -1.292997,1.69549 c -1.564778,2.05187 -2.823394,2.8351 -3.565776,2.21898 -0.401814,-0.33348 -0.753413,-0.27133 -1.687721,0.29828 -1.252943,0.76388 -2.935548,0.95395 -3.295071,0.37223 -0.118946,-0.19246 0.05257,-1.30803 0.381141,-2.47906 0.328573,-1.17102 0.526129,-2.20041 0.439014,-2.28752 -0.08712,-0.0871 -1.393691,1.19135 -2.903502,2.84104 -2.555463,2.79221 -4.743211,4.39213 -6.005845,4.39213 -0.778637,0 -1.34197,-1.29856 -1.080255,-2.49014 0.125349,-0.5707 0.133244,-1.03764 0.01757,-1.03764 -0.115694,0 -0.894846,0.71438 -1.731448,1.5875 -1.059462,1.10572 -1.807101,1.5875 -2.463507,1.5875 -0.51833,0 -0.952552,-0.11906 -0.964938,-0.26458 -0.152195,-1.78811 -0.280943,-2.62592 -0.425788,-2.77077 -0.09599,-0.096 -0.770918,0.2302 -1.499839,0.72486 -1.511924,1.02602 -2.218736,1.13025 -2.510391,0.37021 -0.111683,-0.29104 -0.593387,-0.52916 -1.070453,-0.52916 -1.999096,0 -2.696236,-1.2028 -1.904346,-3.28563 0.237244,-0.624 0.18301,-1.06879 -0.196361,-1.61042 -0.467061,-0.66682 -0.460416,-0.85395 0.06103,-1.71849 0.321841,-0.5336 1.457933,-1.67571 2.52465,-2.53802 l 1.939484,-1.56783 -1.096747,-0.90161 c -1.236373,-1.0164 -1.35715,-1.75403 -0.501116,-3.0605 0.617421,-0.9423 4.551676,-3.74063 7.040139,-5.00745 1.488161,-0.75759 2.294467,-1.8295 1.376172,-1.8295 -0.273501,0 -0.595387,0.15875 -0.715303,0.35278 -0.34925,0.5651 -0.816437,0.40937 -1.058333,-0.35278 -0.286047,-0.90125 -0.900377,-0.8937 -2.068864,0.0254 -0.831146,0.65378 -0.98588,0.67439 -1.465086,0.19518 -0.479173,-0.47917 -0.712193,-0.47918 -2.205088,-1.4e-4 -0.918113,0.2946 -2.276925,0.68658 -3.019584,0.87107 -0.742658,0.18448 -2.171408,0.75473 -3.175,1.26722 -2.185321,1.11593 -6.355536,1.39418 -6.946159,0.46346 -0.808732,-1.27441 -0.300467,-3.58767 1.135117,-5.16625 1.018465,-1.11991 0.28963,-1.27696 -2.242545,-0.48321 -2.827137,0.88621 -5.171142,0.93835 -5.484407,0.12199 -0.124223,-0.32372 0.04019,-1.05215 0.365367,-1.61873 0.624777,-1.08865 0.51898,-1.67325 -0.302831,-1.67325 -0.273123,0 -1.057504,-0.56092 -1.743069,-1.24648 -1.871878,-1.87188 -1.735105,-3.02575 0.624301,-5.26683 1.84118,-1.74885 1.862262,-1.792 1.332312,-2.72711 -0.296158,-0.52257 -0.411153,-1.0782 -0.255544,-1.23472 0.155608,-0.15652 1.897631,-0.36396 3.87116,-0.46097 5.4965,-0.2702 3.473251,-0.93518 -3.596522,-1.18207 -4.436007,-0.15492 -5.972867,-0.33217 -6.633544,-0.76506 -1.152435,-0.7551 -1.362207,-1.43712 -0.79148,-2.57329 0.261816,-0.5212 0.531799,-1.05998 0.599962,-1.19728 0.06816,-0.13731 -0.416026,-0.47526 -1.075976,-0.75101 -3.0139,-1.25928 -3.505406,-3.7535 -1.288363,-6.53799 1.343358,-1.68719 1.546778,-1.80997 2.998611,-1.80997 1.979245,0 1.984763,-0.44652 0.01482,-1.19885 -1.943654,-0.74229 -4.016787,-2.57233 -4.298317,-3.79431 -0.171626,-0.74494 0.0385,-1.21758 1.028479,-2.31336 1.194926,-1.32264 1.229384,-1.43542 0.870558,-2.84908 -0.906018,-3.56943 0.658213,-6.34031 3.777756,-6.69193 1.463186,-0.16492 1.709077,-0.3198 2.138136,-1.34668 0.266648,-0.63818 0.654992,-1.2655 0.862987,-1.39404 0.597988,-0.36958 1.952477,0.10524 3.132379,1.09806 0.780056,0.65638 1.123233,0.78028 1.221622,0.44108 0.07525,-0.25945 0.330102,-1.1861 0.566327,-2.05922 0.236225,-0.87313 0.591293,-1.78594 0.789041,-2.02848 0.636044,-0.7801 2.299226,-0.49895 3.551209,0.60031 0.809134,0.71042 1.421624,0.97963 1.927707,0.84729 0.598229,-0.15644 0.886688,0.0901 1.49071,1.27408 1.03839,2.03541 1.882975,1.82964 2.13636,-0.52049 0.104379,-0.96812 0.396311,-2.13335 0.648737,-2.5894 0.385962,-0.6973 0.636316,-0.79127 1.574108,-0.5908 0.613334,0.13111 1.645835,0.26804 2.294448,0.3043 1.142215,0.0639 2.870616,1.49673 3.314489,2.74778 0.131276,0.36999 0.376433,0.29689 1.036809,-0.30918 0.475684,-0.43656 1.124382,-0.79375 1.441551,-0.79375 1.074649,0 2.271236,2.16775 2.878533,5.21478 0.683561,3.42966 1.108306,4.663 1.60587,4.663 0.19883,0 0.36151,-0.15875 0.36151,-0.35278 0,-0.19402 0.479273,-0.35277 1.065053,-0.35277 0.927404,0 1.039718,-0.10259 0.869016,-0.79375 -0.452629,-1.83266 1.578874,-5.90903 2.944819,-5.90903 0.287415,0 1.048636,0.40125 1.691609,0.89167 1.008193,0.76898 1.26777,0.83001 1.886602,0.44354 1.027709,-0.64181 1.845113,-0.0148 2.440672,1.87216 0.269953,0.85532 0.55335,1.62686 0.629769,1.71453 0.07642,0.0877 0.536663,-0.26952 1.022759,-0.79375 0.486096,-0.52423 1.024795,-0.95315 1.197113,-0.95315 0.381218,0 1.299206,0.89337 1.953983,1.90158 0.477319,0.73497 1.937494,7.23749 1.937494,8.62815 0,1.37647 0.701436,1.13521 1.494314,-0.51397 0.439307,-0.91376 1.232052,-1.98218 1.761649,-2.37427 0.861741,-0.638 1.059406,-0.66126 1.881318,-0.22138 1.202331,0.64346 2.498119,2.8951 2.992367,5.19969 0.362346,1.68957 0.478131,1.84409 1.381785,1.84409 1.375784,0 1.676721,1.01345 1.934997,6.51638 0.306275,6.5256 0.938802,8.7946 3.531048,12.66657 1.172736,1.75168 2.338162,3.24784 2.589834,3.32479 0.559537,0.17108 0.354132,-3.78645 -0.490732,-9.45496 -0.743013,-4.98518 -1.658863,-7.96555 -3.045294,-9.91005 -2.853567,-4.00218 -3.734933,-5.17681 -5.388229,-7.18108 -0.970139,-1.17608 -3.101895,-3.9236 -4.737238,-6.1056 -2.3709,-3.16344 -3.417616,-4.24583 -5.166022,-5.34207 -2.722711,-1.70714 -3.644152,-1.95319 -8.672471,-2.31578 -4.216164,-0.30403 -7.315765,-2.2031 -5.902508,-3.61635 0.688823,-0.68883 -0.03055,-1.15963 -1.771883,-1.15963 -2.37647,0 -3.870364,-0.59172 -4.132694,-1.63691 -0.132418,-0.5276 -0.744283,-1.13032 -1.580624,-1.55699 -1.901986,-0.97032 -2.880098,-2.96693 -2.734491,-5.58189 0.06076,-1.09117 -0.01311,-2.18007 -0.164159,-2.4198 -0.151046,-0.23972 -0.415128,-1.29912 -0.586849,-2.35422 -0.171721,-1.05509 -0.715948,-2.52842 -1.209393,-3.27407 -0.493446,-0.745647 -0.999876,-1.86923 -1.125401,-2.496854 -0.20448,-1.022402 -0.06888,-1.286792 1.303348,-2.541128 l 1.531573,-1.399996 -0.922298,-0.980877 c -2.443151,-2.598328 -3.426984,-5.286118 -2.334726,-6.378378 0.232833,-0.232833 0.934225,-0.423333 1.558647,-0.423333 2.27715,0 2.823602,-0.895496 1.722186,-2.822222 -0.662521,-1.15896 -0.66354,-3.655743 -0.002,-4.934993 0.832235,-1.609365 1.852419,-2.120563 4.231951,-2.120563 1.704287,0 2.398388,0.180561 3.455525,0.898905 1.526449,1.037249 1.868844,0.938164 2.205913,-0.638367 0.361389,-1.690295 0.784895,-2.024427 2.565926,-2.024427 1.489357,0 1.739508,0.13885 3.308195,1.83626 0.933354,1.009944 1.697005,1.962444 1.697005,2.116667 0,0.668849 0.648681,0.168404 1.68208,-1.297691 l 1.112348,-1.578097 -1.044438,-1.985504 c -1.103754,-2.098274 -1.321767,-3.61208 -0.621101,-4.312746 0.232834,-0.232833 1.185334,-0.423333 2.116667,-0.423333 1.599138,0 2.155268,-0.378426 1.317255,-0.896346 -0.789873,-0.488168 -2.446144,-3.125893 -2.446144,-3.895652 0,-0.616571 0.227623,-0.831773 0.970139,-0.917209 0.877898,-0.101013 0.98086,-0.262506 1.082898,-1.69849 0.06201,-0.872774 0.36443,-1.864962 0.672034,-2.204861 1.009181,-1.115131 3.125082,-0.666615 5.295636,1.122538 l 1.24158,1.023417 1.314486,-0.685148 c 1.618396,-0.843554 2.08245,-0.682205 3.189443,1.108946 1.205226,1.950099 1.298716,1.157327 0.13342,-1.131358 -1.031515,-2.025931 -1.243637,-4.183607 -0.540463,-5.497501 0.551974,-1.031376 2.161406,-1.047023 4.573828,-0.04447 2.052828,0.853117 2.880889,0.704486 2.880889,-0.517103 0,-1.325864 0.789637,-1.744931 2.773748,-1.472046 1.081267,0.148713 1.821977,0.100128 1.963455,-0.128788 0.12495,-0.202173 0.794092,-0.524118 1.486983,-0.715435 1.669013,-0.460837 3.832874,0.374038 4.546583,1.754192 0.724711,1.401441 1.095026,1.528372 2.196221,0.752789 1.612019,-1.135356 2.43525,-1.246909 3.242745,-0.439414 0.820639,0.82064 0.925819,2.259868 0.3143,4.300919 -0.528835,1.76509 -0.23163,2.015099 1.003559,0.844205 2.28757,-2.168485 5.40813,-2.957944 6.57882,-1.664347 0.96963,1.071423 1.00707,2.544971 0.12905,5.078854 l -0.82052,2.367975 1.68297,-1.574225 c 0.92564,-0.865823 1.91982,-1.574224 2.2093,-1.574224 0.28948,0 0.95526,0.562355 1.47951,1.249679 l 0.95317,1.249679 0.91686,-0.878187 c 3.12145,-2.989786 7.09087,-2.100842 7.21565,1.615931 0.0468,1.395077 0.13587,1.535106 1.04219,1.639035 0.54503,0.0625 1.07245,0.325985 1.17205,0.58552 0.30302,0.789672 -0.82873,2.52733 -2.69011,4.130316 -0.97109,0.83629 -1.76571,1.61745 -1.7658,1.735912 -1e-4,0.118462 0.93491,0.197837 2.07778,0.176389 2.36019,-0.04429 3.56649,0.688868 3.56649,2.167625 0,0.863646 -1.47535,2.575919 -3.13348,3.636659 -0.81652,0.522351 -0.82405,0.569301 -0.26458,1.651188 0.31671,0.612452 0.57584,1.835808 0.57584,2.718569 0,0.88276 0.16075,1.605018 0.35722,1.605018 0.19648,0 0.76035,-0.912812 1.25305,-2.028472 0.97626,-2.210611 2.77826,-4.321528 3.6891,-4.321528 0.88001,0 1.995,1.437316 2.25775,2.910417 0.26798,1.502431 0.33563,1.526713 2.14596,0.770307 1.94962,-0.814603 3.66524,-0.405711 5.29331,1.261576 1.33577,1.367958 1.33681,1.371354 1.12199,3.67174 l -0.21501,2.302517 1.48512,0.397048 c 1.92914,0.515758 2.36707,0.906036 2.36707,2.109541 0,1.264782 -1.27216,2.289196 -3.73021,3.003768 -1.02033,0.29662 -2.04085,0.763076 -2.26784,1.036574 -0.51955,0.626026 -0.10645,1.350384 0.61274,1.074406 0.95248,-0.365499 4.81277,0.527558 5.64989,1.307074 1.07601,1.00197 0.99904,1.768888 -0.32936,3.281858 -0.94524,1.07657 -1.05789,1.3836 -0.71128,1.93861 0.49415,0.79125 0.22859,1.64796 -0.59151,1.90825 -0.32826,0.10418 -2.09953,0.26614 -3.93616,0.3599 -4.53292,0.23142 -6.39686,0.53612 -6.23463,1.01918 0.0736,0.21925 0.59644,0.40854 1.16181,0.42067 5.89239,0.12632 5.79083,0.10945 6.13679,1.01939 0.18089,0.47578 0.81046,1.11409 1.39905,1.41846 2.40935,1.24592 2.56743,3.1072 0.3608,4.24829 -0.80859,0.41814 -1.04787,0.78347 -1.04787,1.59989 0,1.36209 -0.88649,1.71572 -4.22227,1.68433 -1.38199,-0.013 -2.61555,0.0792 -2.74125,0.20491 -0.12571,0.12571 0.27841,0.6916 0.89804,1.25754 0.61962,0.56594 1.12659,1.34985 1.12659,1.74202 0,1.24055 -1.29994,1.59475 -6.17361,1.68216 -5.3582,0.0961 -6.38808,0.24124 -8.99584,1.26779 -4.19364,1.65084 -6.67019,3.8914 -12.90815,11.67812 -5.909596,7.37683 -6.884504,9.07123 -8.347752,14.50839 -0.507436,1.88554 -0.45206,12.56204 0.07841,15.11729 0.575522,2.77228 1.165698,2.5493 3.358893,-1.26906 1.192259,-2.07572 1.975609,-3.07863 2.407769,-3.08261 1.7551,-0.0161 2.69485,-1.81665 1.47611,-2.82812 -0.70478,-0.58491 -0.66918,-0.92917 0.22606,-2.18642 0.61313,-0.86107 0.76247,-1.60309 0.79375,-3.94397 0.0315,-2.35471 0.17394,-3.05545 0.77711,-3.82198 0.52865,-0.67184 0.75743,-1.51562 0.80491,-2.96864 0.081,-2.47954 1.51753,-6.78725 2.54383,-7.62829 1.0558,-0.86523 2.20463,-0.76907 3.46311,0.28986 1.36675,1.15004 1.9347,0.82914 1.69503,-0.95773 -0.23088,-1.72137 0.52148,-5.04463 1.34912,-5.95915 0.74316,-0.82118 2.36791,-0.91035 2.98736,-0.16396 0.60843,0.73312 1.41111,0.66273 1.41111,-0.12374 0,-2.30997 1.5497,-3.7447 3.13079,-2.89853 0.61239,0.32774 0.98348,0.19338 2.35293,-0.85195 2.6471,-2.02057 5.20831,-1.47037 5.75778,1.23688 0.20846,1.02711 0.41869,1.24562 1.29466,1.34564 2.2572,0.25773 2.42503,1.25619 0.8694,5.17226 -1.12576,2.83393 -1.24138,3.35139 -0.74881,3.35139 0.50389,0 2.07118,-3.47875 3.03542,-6.7374 1.17781,-3.98041 2.69373,-6.31538 4.10008,-6.31538 0.59199,0 1.28496,0.29947 1.63266,0.70556 0.82724,0.96614 1.22406,0.8859 1.9531,-0.3949 0.53723,-0.94381 0.75765,-1.06128 1.5875,-0.84602 0.53001,0.13749 1.75741,0.32927 2.72755,0.42618 2.00464,0.20025 3.17131,1.0609 3.47128,2.56074 0.13967,0.69834 0.47582,1.0607 1.1382,1.22695 0.83639,0.20992 0.91558,0.35798 0.71849,1.34345 -0.21215,1.06074 -0.14528,1.02277 1.58309,-0.89888 1.9205,-2.13528 3.16735,-2.5739 3.82477,-1.34549 0.26061,0.48694 0.86819,0.70358 2.30818,0.82299 3.07518,0.25502 4.31235,1.83245 3.37363,4.30147 -0.46326,1.21848 -0.0726,1.34152 1.71636,0.54058 2.55691,-1.14476 3.56312,-0.86705 4.03477,1.11357 0.15074,0.633 0.66935,1.11692 1.6905,1.57739 1.42428,0.64226 3.48101,2.94406 3.48101,3.8958 0,0.89865 -0.79596,2.18588 -1.62647,2.63035 -1.18634,0.63491 -1.04797,1.26789 0.3802,1.73923 1.36159,0.44936 3.01016,2.1831 3.01016,3.16568 0,0.60692 -1.22626,1.37678 -3.08681,1.93794 -1.04288,0.31454 -1.00209,0.66741 0.14777,1.27877 1.38167,0.7346 2.91133,2.9879 2.67846,3.94556 -0.31035,1.27628 -1.17786,2.01911 -2.62898,2.25116 -1.61963,0.25898 -1.87105,0.56041 -1.27011,1.52268 0.73453,1.17617 -0.0265,1.95341 -1.91262,1.95341 -2.8482,0 -3.6637,1.66905 -1.47609,3.02107 1.4126,0.87303 2.60615,2.57845 2.60817,3.72671 0.001,0.8904 -0.75662,1.58611 -2.25716,2.07116 -0.88473,0.28599 -1.11396,0.57158 -1.20342,1.49934 -0.19954,2.06931 -1.53552,2.21201 -5.26935,0.56282 -1.01865,-0.44992 -1.85209,-0.65305 -1.85209,-0.45141 0,0.20165 0.34498,0.96605 0.76662,1.69867 0.9055,1.57334 0.68648,2.51192 -0.58617,2.51192 -0.88846,0 -2.06091,-0.44354 -7.94156,-3.00427 -5.99702,-2.6114 -11.42372,-3.77856 -14.10028,-3.03264 l -0.87112,0.24277 1.0475,0.41154 c 0.57613,0.22635 2.79376,0.82585 4.92807,1.33223 5.21384,1.23702 6.36156,1.81469 6.31098,3.17645 -0.0215,0.57767 -0.25896,1.57753 -0.52778,2.22192 l -0.48877,1.17161 1.999,1.827 c 2.2352,2.04287 3.02406,3.17237 3.1239,4.47283 0.122,1.58905 0.005,1.79392 -1.33331,2.32687 -0.7276,0.28984 -1.68575,0.70846 -2.12921,0.93027 -0.60859,0.30441 -1.09051,0.30053 -1.96533,-0.0158 -1.70555,-0.61673 -1.93494,-0.5356 -2.05671,0.72742 -0.10086,1.04606 -0.21016,1.14206 -1.24727,1.09558 -0.69005,-0.0309 -1.81761,-0.55077 -2.86949,-1.32292 -0.95302,-0.69958 -1.88663,-1.27196 -2.07469,-1.27196 -0.19772,0 -0.27044,0.7439 -0.17243,1.76388 0.16792,1.74765 0.16014,1.76387 -0.84554,1.76157 -0.55826,-0.001 -1.49127,-0.31775 -2.07335,-0.70324 -0.58209,-0.3855 -1.45521,-0.70472 -1.94028,-0.70937 -0.56743,-0.005 -1.73983,-0.76237 -3.28757,-2.12254 -3.55686,-3.12578 -5.67663,-4.0924 -4.65899,-2.1245 0.60527,1.17046 0.6931,2.75409 0.19634,3.53975 -0.82806,1.30961 -5.56787,-0.11135 -8.26211,-2.47693 -1.11136,-0.97578 -1.4395,-1.10468 -1.92418,-0.75583 -1.14035,0.82078 -1.59586,0.88349 -2.49582,0.34362 -0.5009,-0.30049 -2.22712,-1.34841 -3.83604,-2.32871 -3.41839,-2.08281 -6.93868,-3.08094 -8.92843,-2.53155 -2.12622,0.58708 -5.576936,4.9904 -6.244476,7.96833 -0.316202,1.41059 -0.09742,7.20534 0.60336,15.98055 0.176702,2.21271 0.239994,4.23493 0.140645,4.49382 -0.09935,0.25889 -0.0067,1.22662 0.205969,2.15051 0.212627,0.92388 0.447245,2.23542 0.521371,2.91451 0.07412,0.6791 0.229429,1.6316 0.345119,2.11667 0.115686,0.48507 0.286445,1.91382 0.379455,3.175 0.09301,1.26118 0.507171,4.35681 0.920351,6.87917 1.423256,8.68868 1.741856,12.98956 1.057026,14.26919 -0.36005,0.67275 -1.420913,1.25343 -1.420913,0.77775 z M 105.67886,99.204376 c 1.92449,-2.851052 4.83943,-10.286422 4.25987,-10.865986 -0.0968,-0.09675 -1.12196,0.741013 -2.27824,1.861696 -2.5216,2.443978 -4.347,5.829522 -4.347,8.062324 0,3.09515 0.71875,3.38138 2.36537,0.941966 z M 78.11793,97.145935 c 0.03256,-2.010777 -0.995299,-5.51525 -1.987575,-6.776724 -0.377469,-0.479873 -0.686308,-1.226555 -0.686308,-1.659294 0,-1.114788 -1.411305,-2.85959 -1.807482,-2.234598 -1.214282,1.915592 0.8763,10.315711 2.990441,12.015828 1.116598,0.897925 1.459632,0.588416 1.490924,-1.345212 z m 26.98242,-28.196887 c 0.82231,-1.652159 1.42254,-3.076499 1.33383,-3.165199 -0.20597,-0.20597 -2.21421,3.111027 -2.93409,4.846207 -1.04809,2.526283 0.11356,1.306025 1.60026,-1.681008 z"
         id="path832"
         inkscape:connector-curvature="0" />
      <path
         style="fill:#5b9e0b;stroke-width:0.35277778"
         d="m 97.600376,238.46094 c -1.468275,-1.21028 -1.556441,-1.51358 -2.050118,-7.05241 -0.198879,-2.23132 -0.595228,-5.72382 -0.880781,-7.76111 -1.303358,-9.29892 -2.55555,-21.49041 -2.608837,-25.4 -0.01729,-1.26944 -0.364801,-7.45287 -0.551752,-9.81792 -0.112427,-1.42229 -0.496108,-3.16854 -0.852621,-3.88055 -0.356518,-0.71202 -0.762484,-1.77084 -0.902145,-2.35292 -0.326443,-1.36053 -1.120024,-2.22623 -2.612366,-2.84977 -1.035445,-0.43264 -1.432418,-0.42867 -3.005772,0.03 -2.408912,0.70228 -6.56516,4.48563 -9.103273,8.28652 -1.034947,1.54986 -2.055555,2.81919 -2.268015,2.82072 -0.212464,0.001 -0.673629,-0.31471 -1.024816,-0.70276 -0.850036,-0.93929 -1.061177,-0.89938 -2.202141,0.41616 -0.535073,0.61695 -1.381799,1.59279 -1.881615,2.16855 -0.74749,0.86106 -1.026883,0.98072 -1.574433,0.6743 -0.517927,-0.28985 -1.050029,-0.17777 -2.397323,0.50495 -2.349098,1.19038 -2.614782,0.80794 -1.608744,-2.31572 0.603066,-1.87246 0.70625,-2.60986 0.407063,-2.90905 -0.430692,-0.43069 -0.439138,-0.42324 -4.572282,4.03136 -2.301569,2.48057 -4.074954,3.77593 -5.172386,3.77813 -0.583135,10e-4 -0.6301,-0.18803 -0.415657,-1.67438 0.132969,-0.92163 0.323568,-2.07257 0.423552,-2.55764 0.146286,-0.70971 -0.273565,-0.41691 -2.149923,1.49931 -2.76437,2.8231 -3.726946,3.07904 -3.726946,0.99095 0,-0.76466 -0.154088,-1.48552 -0.342417,-1.60191 -0.322329,-0.19921 -1.556189,0.3565 -2.900127,1.30617 -0.477224,0.33722 -0.724469,0.30691 -1.234723,-0.15136 -0.350906,-0.31516 -1.114261,-0.62599 -1.696344,-0.69073 -1.05602,-0.11745 -1.058092,-0.1222 -0.947907,-2.17144 0.06576,-1.22305 -0.05842,-2.25717 -0.307012,-2.55671 -0.429133,-0.51708 0.543418,-1.66195 3.47351,-4.08898 1.403765,-1.16275 1.417937,-1.57758 0.07999,-2.34129 -0.579046,-0.33053 -1.128039,-0.79509 -1.219985,-1.03237 -0.399307,-1.03048 2.303906,-3.235 8.448979,-6.8903 1.278583,-0.76054 1.609136,-1.14379 1.521065,-1.76355 -0.09689,-0.68181 -0.399651,-0.82754 -2.17902,-1.04882 -1.206486,-0.15004 -2.334649,-0.11348 -2.710837,0.0879 -0.354387,0.18966 -1.250089,0.34254 -1.990449,0.33972 -1.45995,-0.006 -5.137505,1.028 -8.225276,2.31162 -3.821026,1.58846 -6.045213,1.74439 -6.726399,0.47158 -0.536968,-1.00333 -0.112983,-2.47128 1.096123,-3.79508 1.875327,-2.05322 1.178943,-2.78514 -1.834039,-1.92764 -4.319156,1.22925 -4.883043,1.32172 -5.330594,0.87417 -0.337597,-0.3376 -0.297888,-0.65906 0.185439,-1.5012 0.836287,-1.45715 0.791466,-1.63681 -0.547975,-2.19647 -1.054396,-0.44055 -3.072255,-2.40658 -3.069015,-2.99018 0.004,-0.72231 1.573459,-2.62504 2.808119,-3.40445 0.783143,-0.49437 1.423896,-0.98183 1.423896,-1.08324 0,-0.10141 -0.255324,-0.57405 -0.567385,-1.05031 -0.73694,-1.12471 -0.543727,-1.1897 3.890177,-1.30852 3.815415,-0.10225 4.565559,-0.52695 2.665886,-1.5093 -0.83693,-0.4328 -2.521776,-0.62152 -6.813472,-0.76318 -7.473559,-0.24669 -8.546766,-0.7584 -7.024512,-3.34931 0.594635,-1.01208 0.592153,-1.06928 -0.06743,-1.55374 -0.376633,-0.27663 -0.957833,-0.50297 -1.291557,-0.50297 -0.333723,0 -1.031821,-0.50514 -1.551328,-1.12254 -1.176461,-1.39815 -1.011801,-2.64292 0.591907,-4.4746 1.029953,-1.17637 1.313212,-1.29656 3.436981,-1.45841 1.78355,-0.13593 2.339941,-0.31028 2.425326,-0.76 0.07724,-0.40684 -0.295763,-0.71515 -1.231479,-1.01788 -5.05082,-1.63409 -7.027955,-4.14132 -4.766379,-6.04431 1.419459,-1.1944 1.465003,-1.34734 0.97539,-3.27563 -0.821238,-3.23437 0.428953,-5.55591 3.243846,-6.02367 2.052079,-0.34099 2.212337,-0.43756 2.607488,-1.57108 0.598296,-1.71628 2.583112,-1.19985 3.997054,1.03998 0.494695,0.78364 1.135579,1.42481 1.424187,1.42481 0.626207,0 0.646855,-0.24998 0.140607,-1.7022 -0.302121,-0.86667 -0.260591,-1.47388 0.194514,-2.84408 0.318257,-0.95818 0.809996,-1.83092 1.092754,-1.93943 0.738552,-0.28341 1.961881,0.27002 2.953801,1.33628 0.547314,0.58833 1.084563,0.85084 1.482697,0.72448 0.466481,-0.14805 0.80881,0.16336 1.353708,1.23144 0.791345,1.55117 0.910312,1.60615 2.317705,1.07106 0.838051,-0.31863 0.918318,-0.49059 0.720702,-1.54397 -0.231881,-1.23604 0.255728,-3.02088 0.940991,-3.44439 0.218923,-0.1353 0.861089,-0.007 1.427037,0.28611 0.565947,0.29266 1.397163,0.43971 1.847146,0.32677 0.610509,-0.15323 1.003763,0.0306 1.549504,0.72442 0.402245,0.51138 0.731354,1.12188 0.731354,1.35668 0,0.23481 0.306056,0.7039 0.680124,1.04242 0.654277,0.59212 0.701544,0.57408 1.243782,-0.47449 1.15175,-2.22724 2.713937,-0.7662 3.54966,3.31983 0.862965,4.21922 2.335594,9.04302 3.104569,10.16944 1.04147,1.52558 1.438204,0.64033 0.581247,-1.29696 -0.434111,-0.98138 -0.689653,-2.19204 -0.625246,-2.96219 0.09879,-1.18131 0.206269,-1.3035 1.155361,-1.31338 1.02978,-0.0107 1.046978,-0.0423 1.080125,-1.98128 0.03836,-2.24388 1.028206,-4.31961 2.137548,-4.48248 0.39552,-0.0581 1.06741,0.28757 1.542937,0.79375 0.864655,0.92038 1.920311,1.16925 2.306839,0.54383 0.528694,-0.85544 1.226015,-0.22572 1.827364,1.6502 0.353145,1.10164 0.826491,2.0627 1.051881,2.13568 0.22539,0.073 0.696179,-0.35211 1.046198,-0.94465 0.781427,-1.32285 1.274283,-1.35336 2.230229,-0.13807 0.856375,1.0887 0.947509,1.40695 1.953532,6.82184 0.86965,4.68089 1.28838,5.03734 2.650518,2.25632 1.55363,-3.172 2.411734,-3.66484 3.774977,-2.16812 1.074699,1.17992 1.599258,2.33803 2.037302,4.49792 0.358722,1.76877 0.477672,1.94167 1.345678,1.95603 0.523692,0.009 1.127012,0.1906 1.340708,0.4043 0.229115,0.22911 0.456522,2.44652 0.554224,5.40414 0.219678,6.6502 0.9586,9.22166 3.967191,13.80591 1.228101,1.87128 2.571302,3.5913 2.984888,3.82228 0.413586,0.23098 1.080054,1.08104 1.481036,1.88904 1.11125,2.23921 1.788417,2.11591 2.005718,-0.36522 0.127356,-1.45414 0.03762,-2.20755 -0.310342,-2.60555 -0.316763,-0.36232 -0.41195,-0.94767 -0.269731,-1.65875 0.192606,-0.96303 0.110137,-1.12638 -0.667138,-1.32146 -0.656523,-0.16478 -0.932187,-0.51283 -1.061205,-1.33986 -0.09586,-0.61449 -0.03256,-1.26806 0.140646,-1.45239 0.498831,-0.53083 0.369831,-1.34891 -0.179466,-1.13813 -0.986698,0.37863 -1.30551,-4.33302 -0.376322,-5.56152 0.284872,-0.37663 0.517949,-0.97195 0.517949,-1.32292 0,-0.35097 0.15875,-0.63813 0.352777,-0.63813 0.194028,0 0.352778,-0.3894 0.352778,-0.86534 0,-1.2977 0.751103,-2.72044 1.320783,-2.50184 0.35832,0.1375 0.459687,-0.0716 0.378135,-0.78011 -0.06801,-0.59091 -0.297663,-0.9288 -0.589523,-0.86741 -0.779625,0.164 -1.462173,-0.64417 -1.462173,-1.73127 0,-0.87663 -0.134771,-1.01514 -0.987777,-1.01514 -1.263926,0 -1.834445,-0.58225 -1.834445,-1.87219 0,-0.84101 0.111069,-0.97852 0.617361,-0.76428 0.339549,0.14368 0.894634,0.24994 1.233527,0.23614 0.370296,-0.0151 0.702288,0.31806 0.831994,0.83485 0.118706,0.47296 0.428855,0.85993 0.689222,0.85993 0.260364,0 0.635205,0.27781 0.832972,0.61736 0.329572,0.56584 0.360476,0.55783 0.370307,-0.096 0.0059,-0.39236 -0.441155,-1.26548 -0.993457,-1.94028 -1.467969,-1.79355 -1.818037,-2.60135 -1.818037,-4.19519 0,-0.78494 -0.258607,-2.07349 -0.574686,-2.86344 -0.540028,-1.34967 -0.640782,-1.42177 -1.670653,-1.19557 -0.602784,0.13239 -1.271976,0.48142 -1.487092,0.77561 -0.265642,0.36329 -0.684746,0.4612 -1.306337,0.30519 -0.808954,-0.20304 -1.370488,0.10587 -1.510982,0.83122 -0.196494,1.01446 -0.670888,2.37912 -0.950422,2.73402 -0.507313,0.64409 -0.966495,0.53891 -0.966495,-0.22139 0,-0.36429 -0.254663,-0.87371 -0.565919,-1.13202 -0.311253,-0.25832 -0.705591,-0.83705 -0.876304,-1.28606 -0.248701,-0.65413 -0.486138,-0.77227 -1.194685,-0.59444 -1.030732,0.2587 -1.687763,-0.75238 -0.854082,-1.31432 0.411924,-0.27765 0.405913,-0.32265 -0.03679,-0.27537 -1.073623,0.11464 -1.336019,-0.0584 -2.314706,-1.5264 -1.534259,-2.30135 -2.668298,-3.43723 -4.211683,-4.21854 -0.776112,-0.3929 -1.649237,-0.91821 -1.940278,-1.16736 -0.772026,-0.6609 -3.026626,-1.23685 -5.644445,-1.4419 -6.326749,-0.49555 -9.224963,-1.80174 -6.879167,-3.10036 0.388055,-0.21482 0.767867,-0.42644 0.844021,-0.47025 0.07616,-0.0438 -0.06234,-0.32164 -0.307778,-0.61737 -0.291179,-0.35084 -1.060598,-0.53769 -2.214206,-0.53769 -2.790233,0 -4.501642,-0.64732 -4.729988,-1.78907 -0.139034,-0.69515 -0.584366,-1.1361 -1.618279,-1.60233 -1.775444,-0.80061 -2.730448,-2.30824 -2.732174,-4.31316 -9.88e-4,-1.14563 0.191067,-1.68674 0.763065,-2.14992 0.920903,-0.7457 0.67977,-1.6837 -0.47507,-1.84802 -0.676382,-0.0962 -0.852221,-0.39699 -1.051763,-1.79895 -0.136999,-0.96254 -0.704844,-2.38579 -1.326075,-3.323678 -0.597562,-0.902152 -1.086476,-2.017519 -1.086476,-2.478585 0,-1.046688 1.51476,-2.491712 2.763306,-2.636097 1.321933,-0.152869 1.202829,-1.116679 -0.261115,-2.112994 -1.382849,-0.941127 -3.0327,-2.931975 -3.367222,-4.063178 -0.338508,-1.14468 0.889363,-2.221565 2.540725,-2.228308 2.296823,-0.0094 2.435276,-0.312008 1.365406,-2.984495 -1.061869,-2.652502 -0.921376,-4.154354 0.533496,-5.702994 1.148887,-1.222935 4.544959,-1.196403 6.378962,0.04983 1.678365,1.140479 2.331925,1.118126 2.578608,-0.08819 0.782091,-3.824567 3.041294,-3.853484 5.793469,-0.07416 0.842144,1.156446 1.744388,2.102629 2.004981,2.102629 0.260593,0 0.696567,-0.533143 0.96883,-1.184761 0.272264,-0.651619 0.862316,-1.526946 1.311229,-1.945171 l 0.816205,-0.76041 -1.321647,-2.491712 c -0.888665,-1.675403 -1.246181,-2.729486 -1.091293,-3.217496 0.210664,-0.663743 0.423047,-0.70779 2.484596,-0.515279 2.035665,0.190093 2.254243,0.147078 2.254243,-0.443624 0,-0.35977 -0.714375,-1.448685 -1.5875,-2.41981 -0.873125,-0.971125 -1.5875,-1.985366 -1.5875,-2.253868 0,-0.268502 0.485383,-0.671397 1.078629,-0.895322 0.992392,-0.374586 1.060323,-0.504727 0.849654,-1.627696 -0.639148,-3.406943 2.22122,-3.842655 5.402598,-0.822965 0.978207,0.928492 1.25113,1.031154 1.763889,0.663501 1.812675,-1.299707 2.231764,-1.336696 3.026368,-0.267107 0.415389,0.559138 1.469627,2.370541 2.342752,4.025339 0.873125,1.654798 1.785853,3.069523 2.028285,3.143833 1.074427,0.329331 0.674666,-1.21514 -1.479875,-5.717477 -2.379493,-4.972416 -2.542723,-5.548535 -1.986544,-7.011396 0.50582,-1.33041 1.291117,-1.386581 4.023646,-0.287802 2.694146,1.083347 3.41171,0.98563 3.41171,-0.464603 0,-0.424227 0.220733,-1.073194 0.49052,-1.442149 0.423961,-0.579798 0.617696,-0.612883 1.427713,-0.243815 1.384614,0.630873 2.10367,0.527475 3.163708,-0.454933 0.66221,-0.613715 1.348447,-0.880301 2.256374,-0.876542 0.883616,0.0037 1.147367,0.105075 0.817157,0.314211 -0.381978,0.241924 -0.321734,0.361448 0.278161,0.551847 0.421161,0.133671 1.177608,0.865401 1.680994,1.626067 0.503382,0.760666 1.084054,1.383028 1.290376,1.383028 0.206322,0 0.974697,-0.415501 1.707501,-0.923335 2.200744,-1.525116 3.406442,-0.267543 2.576375,2.687224 -0.919053,3.271521 -0.936921,3.527778 -0.245964,3.527778 0.351829,0 1.336941,-0.650179 2.189141,-1.444843 1.75916,-1.640384 2.70401,-2.082935 4.44709,-2.082935 2.70021,0 2.43056,3.157547 -0.75315,8.819445 -2.1922,3.898592 -2.62877,4.956973 -2.62877,6.372966 0,2.244737 1.43173,0.668905 3.70683,-4.07991 1.78611,-3.72814 3.00561,-5.477278 4.11581,-5.90331 0.52965,-0.203253 0.83035,0.0052 1.3997,0.970139 0.39882,0.675952 0.93256,1.229004 1.18607,1.229004 0.25352,0 1.11086,-0.542989 1.9052,-1.206641 1.66928,-1.394646 3.04208,-1.795559 4.39152,-1.282504 1.12858,0.429085 1.64453,1.593696 1.27573,2.879618 -0.34438,1.200785 -0.0474,1.634926 1.21947,1.782556 0.56649,0.06601 1.09981,0.332466 1.18515,0.592113 0.0853,0.259648 -0.97397,1.570323 -2.35404,2.912611 -1.38007,1.342288 -2.50922,2.581301 -2.50922,2.753364 0,0.542584 0.97668,0.717534 2.8001,0.501576 1.82807,-0.216507 3.5499,0.455961 3.5499,1.386427 0,0.233792 -0.96357,1.327859 -2.14126,2.43126 l -2.14127,2.006184 0.55377,1.070865 c 0.32044,0.61966 0.55376,1.951899 0.55376,3.161856 0,2.097236 0.50034,3.093045 1.30441,2.596108 0.21934,-0.135559 0.94614,-1.436166 1.61511,-2.890238 0.66897,-1.454071 1.63346,-3.027063 2.14331,-3.495537 0.90035,-0.82728 0.9474,-0.833316 1.63625,-0.209908 0.43098,0.390025 0.70926,1.087914 0.70926,1.778715 0,1.487478 0.73248,2.076407 2.20163,1.770138 3.40728,-0.710308 4.16572,-0.662278 5.20076,0.329353 1.23016,1.178571 1.5204,2.795294 0.78592,4.377818 -0.53431,1.151224 -0.5246,1.222234 0.25323,1.852084 0.44487,0.360228 1.03726,0.65496 1.31645,0.65496 0.84904,0 2.58923,1.045757 2.58923,1.555986 0,0.639706 -1.28678,1.448629 -3.40814,2.14249 -0.95563,0.312569 -2.20692,0.946588 -2.78066,1.408928 -0.93686,0.754969 -0.99615,0.917829 -0.58192,1.598418 0.34287,0.563337 0.35999,0.879779 0.0667,1.233149 -0.21698,0.261444 -0.34515,0.764942 -0.28484,1.11889 0.0789,0.46281 -0.138,0.66962 -0.77227,0.73644 -2.88844,0.30428 -3.85589,0.52228 -4.45028,1.00281 -0.60435,0.48858 -0.40848,0.51744 2.14736,0.3165 1.54679,-0.12161 3.00974,-0.38493 3.25099,-0.58515 0.25336,-0.21027 1.02638,-0.26474 1.83008,-0.12896 1.01227,0.17102 1.47223,0.10082 1.6879,-0.2576 0.62034,-1.03098 2.49581,-2.105295 3.25478,-1.864408 1.00426,0.318739 0.94624,1.452708 -0.10971,2.144598 -0.47055,0.30832 -1.0221,1.03835 -1.22566,1.62228 -0.29519,0.84679 -0.51478,1.01579 -1.08473,0.8349 -0.48649,-0.15441 -0.71462,-0.0684 -0.71462,0.2695 0,0.64085 -1.48982,1.31512 -2.90578,1.31512 -2.32202,0 -5.28044,0.84077 -5.81177,1.65168 -0.28352,0.43271 -0.42754,0.92904 -0.32006,1.10296 0.10749,0.17392 1.25502,0.41516 2.55007,0.53609 1.29505,0.12094 2.42312,0.28837 2.50682,0.37207 0.0837,0.0837 -0.0976,0.63531 -0.40299,1.22579 -0.70916,1.37136 -0.71379,1.34884 0.3179,1.54606 0.55369,0.10585 1.07824,-0.0598 1.43395,-0.45287 0.82321,-0.90963 1.65363,-1.01449 2.97768,-0.376 2.25026,1.08512 2.25457,2.64076 0.007,2.43749 -1.33027,-0.1203 -1.76368,0.32635 -1.76368,1.81759 0,1.60241 -0.23039,1.72479 -2.9592,1.57186 -3.52987,-0.19784 -4.25849,0.7434 -2.15607,2.78524 0.67909,0.65954 1.23472,1.29471 1.23472,1.41152 0,0.48186 -2.84734,0.94744 -5.82083,0.95178 -5.90555,0.009 -9.31629,0.97558 -13.26529,3.7608 -2.21667,1.56342 -3.33204,2.7649 -8.62535,9.29128 -5.181965,6.38909 -6.378821,8.21652 -7.657248,11.69149 -1.045179,2.84096 -1.090278,3.20098 -1.233379,9.84589 -0.191928,8.91225 0.42508,12.45453 2.055432,11.80036 0.276983,-0.11114 1.280389,-1.55308 2.229788,-3.20432 1.381067,-2.40202 1.978007,-3.10747 2.985707,-3.52852 1.8342,-0.76638 2.59505,-1.56363 2.36541,-2.47858 -0.15378,-0.61274 0.067,-0.92974 1.05263,-1.51126 1.07995,-0.6372 1.19633,-0.83098 0.86776,-1.44492 -0.2087,-0.38997 -0.71375,-0.70903 -1.12232,-0.70903 -0.71101,0 -0.73494,-0.12707 -0.55805,-2.96247 0.10165,-1.62936 0.42667,-3.4153 0.72227,-3.96875 0.29559,-0.55346 0.70273,-2.38627 0.90475,-4.07293 0.53177,-4.43964 1.93032,-7.3403 3.5391,-7.3403 0.19745,0 0.91704,0.57461 1.59911,1.27691 1.74465,1.79641 2.31928,1.46251 2.33025,-1.35403 0.0147,-3.77755 0.9977,-6.62566 2.28678,-6.62566 0.2322,0 0.93749,0.49248 1.56734,1.09439 1.34318,1.28362 1.65694,1.0986 2.09273,-1.23406 0.17448,-0.93397 0.54645,-1.92733 0.82659,-2.20748 0.44396,-0.44395 0.65539,-0.42788 1.6467,0.12515 1.1348,0.63308 1.13908,0.63243 1.91054,-0.29035 0.98945,-1.18353 2.04194,-1.72098 3.37023,-1.72098 1.28348,0 2.51824,1.3967 2.51824,2.8485 0,0.88873 0.13468,1.00061 1.32292,1.09895 1.11418,0.0922 1.33923,0.2491 1.4263,0.99427 0.0569,0.48662 -0.37969,2.05627 -0.97014,3.4881 -1.26533,3.06847 -1.3774,4.27018 -0.39823,4.27018 0.98814,0 2.52966,-2.76058 3.84135,-6.87917 1.45029,-4.55377 2.44616,-6.3164 3.64824,-6.45718 0.73105,-0.0856 1.06656,0.14928 1.66713,1.16717 0.86797,1.4711 1.27049,1.3604 2.03921,-0.56082 0.53935,-1.34797 1.55358,-1.8534 2.0635,-1.02833 0.11992,0.19403 0.97207,0.35278 1.89367,0.35278 1.97533,0 2.78131,0.49498 3.16003,1.94068 0.15242,0.58186 0.62551,1.21463 1.0513,1.40616 0.42579,0.19153 0.77417,0.48155 0.77417,0.64448 0,0.16293 -0.635,1.183 -1.41111,2.26683 -1.21278,1.69362 -1.85743,3.61962 -1.21153,3.61962 0.62102,0 1.6004,-0.86087 2.30265,-2.02401 0.91844,-1.5212 3.36842,-4.64319 4.15616,-5.29613 0.77189,-0.6398 1.37593,-0.54187 1.63188,0.26459 0.18054,0.56881 0.53377,0.70555 1.82254,0.70555 0.87924,0 2.153,0.26308 2.83058,0.58461 1.32131,0.62701 1.30678,0.53645 0.62138,3.87153 -0.12539,0.61015 -0.0709,1.20125 0.12171,1.32029 0.1918,0.11854 1.24346,-0.18016 2.33702,-0.66378 2.56025,-1.13227 2.85843,-1.10945 3.2479,0.24856 0.22657,0.79 0.78538,1.39802 1.86543,2.02968 1.96851,1.15128 2.46522,1.89553 1.88506,2.8245 -0.23797,0.38106 -0.33579,0.94531 -0.21738,1.2539 0.12646,0.32954 -0.10743,0.90459 -0.56681,1.39358 -1.05002,1.1177 -0.81801,1.87907 0.84874,2.78525 1.48869,0.80938 2.6355,1.91762 2.6546,2.56534 0.0249,0.84352 -2.03957,1.24825 -5.76679,1.13058 -2.14577,-0.0678 -3.73735,0.0221 -3.75235,0.21183 -0.0143,0.18121 1.37808,0.67484 3.09423,1.09695 3.56412,0.87664 5.37509,1.91463 6.28353,3.60149 0.61573,1.14335 0.61385,1.19453 -0.069,1.87739 -0.3861,0.38609 -1.32751,0.79832 -2.09202,0.91604 -2.02352,0.31161 -2.4193,0.7207 -1.72394,1.78195 0.82942,1.26585 0.43843,1.8358 -1.21414,1.7699 -0.94887,-0.0378 -1.64921,0.16251 -2.14894,0.61476 -0.70427,0.63736 -0.79181,0.64106 -1.75159,0.0741 -0.55565,-0.32823 -1.30328,-0.59832 -1.6614,-0.6002 -0.35812,-0.002 -1.34054,-0.55149 -2.18316,-1.22134 -1.86901,-1.48579 -2.5822,-1.73142 -4.16507,-1.43447 -0.89774,0.16842 -1.1954,0.38994 -1.1116,0.82726 0.0859,0.4485 0.63447,0.65321 2.20242,0.82194 1.4145,0.15221 2.23807,0.42998 2.55337,0.86117 0.67921,0.92887 0.60828,1.12525 -0.9457,2.61831 -0.77611,0.74568 -1.41111,1.5852 -1.41111,1.86558 0,0.28039 0.79375,0.83966 1.76389,1.24283 2.03349,0.84508 2.33379,1.73413 0.69636,2.06162 -0.82491,0.16498 -1.02186,0.35738 -0.86659,0.84658 0.14819,0.46692 -0.0114,0.66318 -0.60817,0.74781 -0.68933,0.0978 -0.80303,0.31179 -0.76813,1.44589 0.0226,0.73465 0.32463,1.6446 0.674,2.03064 0.34816,0.38471 0.5423,0.79021 0.43141,0.90109 -0.3128,0.31281 -3.66823,-0.69701 -6.86189,-2.06508 -5.05175,-2.16402 -8.85774,-3.07974 -12.80025,-3.07974 -3.44136,0 -4.41734,0.31495 -3.57775,1.15454 0.43041,0.43041 4.13061,1.65434 5.02603,1.66248 0.65157,0.006 4.19713,1.11191 5.77859,1.80255 0.58209,0.2542 1.0783,0.46972 1.1027,0.47894 0.0244,0.009 0.14843,0.35588 0.27561,0.77035 0.16166,0.52681 -0.0375,1.07292 -0.66173,1.81481 -1.10656,1.31508 -1.10753,1.5322 -0.0126,2.8334 0.83422,0.99141 0.85362,1.11012 0.37036,2.26672 -0.44987,1.07669 -0.44607,1.31174 0.0322,1.99463 0.69005,0.98518 0.0495,1.94741 -1.10369,1.65798 -0.92813,-0.23294 -2.23041,0.63155 -2.66221,1.76725 -0.39316,1.0341 -1.01663,1.07115 -2.21132,0.13141 -1.2637,-0.99403 -3.3384,-1.81849 -3.58244,-1.42362 -0.11034,0.17852 -0.008,1.04513 0.22765,1.92579 0.23554,0.88066 0.30855,1.72091 0.16224,1.86721 -0.1463,0.14631 -1.03604,-0.16685 -1.97719,-0.69589 -0.94115,-0.52905 -1.92457,-0.88031 -2.18537,-0.78059 -0.26081,0.0997 -1.44451,-0.66536 -2.63045,-1.7002 -2.51094,-2.191 -5.0689,-3.76943 -6.10867,-3.76943 -0.88017,0 -0.88886,0.0824 -0.15776,1.49622 1.51509,2.92984 1.12387,4.39741 -1.05779,3.96807 -1.59991,-0.31485 -5.33754,-2.23385 -6.25689,-3.21246 -0.89373,-0.95133 -2.0002,-1.101 -2.30314,-0.31155 -0.33634,0.87648 -1.12659,0.62 -4.31473,-1.40034 -4.0171,-2.54566 -6.62287,-3.4486 -9.47159,-3.28203 -2.62083,0.15323 -3.3081,0.67781 -5.672461,4.32959 -2.436026,3.76248 -2.599542,4.60259 -2.190521,11.25457 0.192049,3.12332 0.446688,6.50034 0.565863,7.50449 0.119175,1.00414 0.25667,3.46476 0.305548,5.46805 0.111277,4.56068 1.59584,16.90733 2.62249,21.81039 0.548446,2.61927 1.047831,7.87023 0.847141,8.90764 -0.245609,1.26958 -1.025184,1.24265 -2.643546,-0.0913 z m 0.648773,-7.3671 c -0.302098,-1.28213 -0.554221,-2.72802 -0.560275,-3.21309 -0.01873,-1.50198 -0.235405,-3.59414 -0.657599,-6.35 -0.222934,-1.45521 -0.480603,-3.20146 -0.572597,-3.88055 -0.313436,-2.31382 -0.634393,-3.53612 -0.985506,-3.75312 -0.87479,-0.54065 0.419742,11.38258 1.647808,15.17705 0.258547,0.79885 0.565771,2.21968 0.682727,3.15741 0.246249,1.97442 0.662661,2.87262 0.862722,1.86091 0.07259,-0.36711 -0.115182,-1.71649 -0.41728,-2.99861 z m -2.511676,-18.74939 c 0.273484,-0.44251 -0.521342,-5.31519 -0.944315,-5.78911 -0.166441,-0.18649 -0.29911,1.00009 -0.29911,2.67523 0,1.6557 0.105833,3.1162 0.235186,3.24555 0.341666,0.34167 0.748538,0.28854 1.008239,-0.13167 z m -3.904326,-27.47821 c 0.111633,-0.18062 0.04162,-0.42812 -0.155568,-0.54999 -0.197192,-0.12187 -0.358531,0.0259 -0.358531,0.3284 0,0.61967 0.211688,0.71091 0.514099,0.22159 z m -1.219655,-6.88272 c 0,-0.0856 -0.15875,-0.25368 -0.352778,-0.3736 -0.194027,-0.11992 -0.352777,-0.0499 -0.352777,0.15557 0,0.20548 0.15875,0.3736 0.352777,0.3736 0.194028,0 0.352778,-0.07 0.352778,-0.15557 z m 48.126058,-1.32246 c 0.29757,-0.42485 0.4663,-0.84721 0.37494,-0.93857 -0.21073,-0.21074 -1.58155,1.01394 -1.58155,1.41294 0,0.56039 0.66493,0.29899 1.20661,-0.47437 z m -49.211111,-1.43239 c 0.799102,-1.27938 0.750376,-2.3158 -0.141873,-3.01765 -0.446479,-0.3512 -0.870698,-0.94699 -0.942703,-1.32399 -0.09016,-0.47204 -0.56908,-0.7818 -1.538284,-0.99492 -0.774051,-0.17021 -2.442609,-0.68615 -3.707903,-1.14653 -1.265298,-0.46038 -2.555547,-0.83705 -2.867223,-0.83705 -0.852695,0 -1.415792,0.88414 -1.17475,1.84452 0.231472,0.92226 -0.575035,1.91921 -1.22676,1.51642 -0.202526,-0.12517 -0.368229,-0.0635 -0.368229,0.13696 0,0.78643 2.185518,1.46811 4.976573,1.55221 2.283297,0.0688 2.913845,0.20755 3.190582,0.70204 0.301255,0.53832 2.631638,2.284 3.125068,2.34099 0.09885,0.0114 0.402826,-0.33644 0.675502,-0.773 z m -11.599958,-6.45626 c 1.014388,-1.22226 -0.860185,-2.14259 -2.267744,-1.11336 -0.586112,0.42857 -0.564113,0.54712 0.364868,1.96602 l 0.988585,1.50994 0.248786,-0.93024 c 0.136829,-0.51163 0.436309,-1.15619 0.665505,-1.43236 z m 31.609699,-5.34012 c -0.39131,-0.39131 -0.93227,0.33506 -0.91889,1.23387 l 0.0141,0.94931 0.54265,-1.00132 c 0.29845,-0.55073 0.46141,-1.08257 0.36212,-1.18186 z m 13.80786,-3.16498 c 0.52675,-0.32211 1.51336,-0.93169 2.19245,-1.35461 0.6791,-0.42293 1.70773,-1.06004 2.28585,-1.41582 l 1.05113,-0.64686 -0.96293,-0.32098 c -1.06295,-0.35431 -1.12375,-0.58805 -0.61466,-2.36314 0.25794,-0.89937 0.23506,-1.28487 -0.0882,-1.48621 -0.34452,-0.21458 -0.33898,-0.42909 0.0263,-1.01823 0.4099,-0.66117 0.38976,-0.73196 -0.17639,-0.62004 -0.44663,0.0883 -0.63912,0.44464 -0.63912,1.18318 0,0.59034 -0.5061,1.84616 -1.14653,2.84502 -0.67486,1.05255 -1.14653,2.24714 -1.14653,2.90382 0,1.11911 -0.18733,1.24847 -1.642,1.13386 -0.89014,-0.0701 -1.27014,0.3953 -0.96724,1.18467 0.27274,0.71075 0.63325,0.70589 1.8279,-0.0247 z m 6.77857,-4.00045 c 0,-0.19402 -0.14938,-0.35277 -0.33196,-0.35277 -0.18258,0 -0.43007,0.15875 -0.54999,0.35277 -0.11992,0.19403 0.0295,0.35278 0.33196,0.35278 0.30249,0 0.54999,-0.15875 0.54999,-0.35278 z m -14.27594,-1.78626 c 0.46648,-0.90206 0.46885,-1.03596 0.0183,-1.03596 -0.60479,0 -0.73169,0.18416 -1.05358,1.52887 -0.29812,1.24539 0.27826,0.97097 1.03526,-0.49291 z m 17.50005,0.0143 0.83283,-0.7136 -1.05532,0.0962 c -0.67597,0.0616 -1.0974,0.31815 -1.17239,0.71359 -0.15498,0.81723 0.37114,0.78094 1.39488,-0.0962 z m -4.36329,-2.39526 c 0.21165,-0.63495 -0.51753,-0.50153 -0.7636,0.13972 -0.13184,0.34357 -0.053,0.50485 0.20479,0.41892 0.23054,-0.0768 0.48201,-0.32824 0.55881,-0.55864 z m 10.04682,-0.24253 c -0.1302,-0.52076 -1.23878,-0.4288 -1.42101,0.11788 -0.10756,0.32267 0.10504,0.43359 0.67616,0.35278 0.45817,-0.0648 0.79335,-0.27663 0.74485,-0.47066 z m 7.53268,-4.14141 c 3.51736,-1.69113 3.74491,-1.85823 2.67483,-1.96435 -0.64327,-0.0638 -1.38838,0.0656 -1.6558,0.28754 -0.26742,0.22194 -1.30489,0.61949 -2.30548,0.88344 -1.9044,0.50237 -3.15943,1.36327 -3.15943,2.16724 0,0.71452 0.28615,0.6261 4.44588,-1.37387 z m -55.951438,-1.70024 c 0,-0.39951 -0.15875,-0.62827 -0.352778,-0.50835 -0.194027,0.11992 -0.352777,0.44679 -0.352777,0.72638 0,0.27959 0.15875,0.50834 0.352777,0.50834 0.194028,0 0.352778,-0.32687 0.352778,-0.72637 z m 81.932648,-0.21282 c -0.24254,-0.0979 -0.63941,-0.0979 -0.88195,0 -0.24253,0.0979 -0.0441,0.17794 0.44097,0.17794 0.48507,0 0.68351,-0.0801 0.44098,-0.17794 z m -18.43264,-1.53025 c 0,-0.19403 -0.15875,-0.35278 -0.35278,-0.35278 -0.19403,0 -0.35278,0.15875 -0.35278,0.35278 0,0.19403 0.15875,0.35278 0.35278,0.35278 0.19403,0 0.35278,-0.15875 0.35278,-0.35278 z m -64.029174,-12.2859 c 0,-1.58361 -0.115994,-2.84057 -0.257761,-2.79323 -0.348382,0.11633 -2.000691,-2.31433 -1.800021,-2.64796 0.29228,-0.48593 1.528615,-0.27193 1.528615,0.26459 0,0.29104 0.15875,0.52916 0.352778,0.52916 0.587911,0 0.424878,-2.81669 -0.176389,-3.04742 -0.665875,-0.25552 -0.692634,-0.83313 -0.0386,-0.83313 0.8619,0 0.912058,-2.49914 0.07305,-3.63949 l -0.731083,-0.99366 0.798478,-0.60229 c 0.588796,-0.44413 0.694841,-0.70593 0.403828,-0.99694 -0.291014,-0.29101 -0.276927,-0.61304 0.05364,-1.22627 0.286802,-0.53206 0.505019,-2.87178 0.605773,-6.49514 0.168589,-6.06285 0.246126,-5.7287 -1.702926,-7.33876 -0.606411,-0.50093 -0.684837,-0.72187 -0.33335,-0.9391 0.769715,-0.47571 0.53999,-2.389178 -0.41305,-3.440456 -0.479968,-0.529438 -1.312542,-1.652587 -1.850164,-2.495882 -0.732575,-1.149088 -1.147396,-1.488835 -1.655572,-1.355943 -0.538583,0.140843 -0.678078,-0.0086 -0.678078,-0.726274 0,-0.883169 -0.01605,-0.889068 -0.710085,-0.260975 -0.390547,0.353441 -1.105236,0.684749 -1.588199,0.73624 -0.782948,0.08348 -0.85573,-0.0089 -0.671562,-0.852526 0.364868,-1.671327 0.443802,-1.776839 1.184377,-1.583175 0.554811,0.145087 0.727135,0.02342 0.727135,-0.513352 0,-0.38693 -0.252458,-0.913027 -0.561022,-1.169112 -0.511327,-0.424364 -0.508198,-0.504236 0.03533,-0.901669 0.743532,-0.543687 0.343577,-1.29027 -0.54084,-1.009568 -0.448592,0.142377 -0.785477,-0.03726 -1.071249,-0.571227 -0.402516,-0.752112 -0.429941,-0.755731 -0.796858,-0.105148 -0.208999,0.370573 -0.35156,1.864396 -0.316808,3.319604 0.05863,2.455164 -0.370876,4.233334 -1.022544,4.233334 -0.15082,0 -0.620582,-0.949943 -1.043916,-2.11098 -0.423337,-1.161038 -0.987488,-2.291726 -1.253673,-2.512639 -0.266185,-0.220916 -0.483973,-0.730878 -0.483973,-1.133252 0,-1.049606 -1.766683,-3.466506 -2.439395,-3.3372 -1.434447,0.275724 -1.047354,7.348943 0.579727,10.593189 1.103514,2.200293 3.164858,4.498101 4.035214,4.498101 0.633942,0 2.410566,-2.270372 2.410566,-3.080498 0,-0.685426 1.679928,-0.531238 2.434618,0.223453 0.3689,0.368899 1.0039,0.776474 1.411111,0.905718 0.407212,0.129244 0.740382,0.467395 0.740382,0.751452 0,0.284056 0.238125,0.607843 0.529167,0.719525 0.291042,0.11169 0.529167,0.50358 0.529167,0.87087 0,0.3673 0.141767,0.66782 0.315034,0.66782 0.515101,0 0.784786,1.11244 0.386133,1.59278 -0.211977,0.25542 -0.274045,1.04094 -0.14568,1.8437 0.175616,1.09824 0.102087,1.44533 -0.342304,1.61586 -0.7152,0.27445 -0.744213,1.29766 -0.03679,1.29766 0.680914,0 0.675276,0.50905 -0.01327,1.19759 -0.585816,0.58581 -0.627119,1.14428 -0.376237,5.08679 0.0903,1.41911 0.371704,2.83024 0.62533,3.13585 0.253626,0.3056 0.413494,0.9192 0.355265,1.36356 -0.05823,0.44436 0.142138,1.28753 0.445265,1.87371 0.749226,1.44885 0.692422,3.31194 -0.154414,5.06469 -0.83046,1.71885 -0.918372,4.08659 -0.187607,5.05274 0.284868,0.37663 0.522993,1.20073 0.529166,1.83132 0.01189,1.21354 1.154169,2.70552 1.885351,2.4625 0.277788,-0.0923 0.418924,-1.10927 0.418924,-3.01854 z m -2.21221,-29.05525 c 0.218041,-0.65413 0.977487,-0.76262 0.977487,-0.13964 0,0.30721 -0.251354,0.55857 -0.558563,0.55857 -0.307213,0 -0.495727,-0.18852 -0.418924,-0.41893 z M 86.99752,99.782952 c -0.760783,-0.429302 -0.813767,-1.371646 -0.07712,-1.371646 0.562152,0 1.026499,0.783936 0.815958,1.377538 -0.07812,0.220246 -0.34181,0.218146 -0.738833,-0.0059 z m -4.374678,28.073998 c -0.109301,-0.28482 -0.34049,-0.51787 -0.513761,-0.51787 -0.361985,0 -0.42564,0.83014 -0.08944,1.16634 0.376329,0.37633 0.815343,-0.0956 0.603201,-0.64847 z m -1.53435,-2.45814 c 0.366239,-0.4413 0.31829,-0.52917 -0.288763,-0.52917 -0.772622,0 -1.253758,0.45655 -0.877574,0.83274 0.355459,0.35546 0.692112,0.26783 1.166337,-0.30357 z m -8.11389,-0.86113 c 0,-0.18257 -0.15875,-0.43007 -0.352778,-0.54998 -0.194027,-0.11992 -0.352777,0.0294 -0.352777,0.33195 0,0.3025 0.15875,0.54999 0.352777,0.54999 0.194028,0 0.352778,-0.14938 0.352778,-0.33196 z m -0.182792,-1.77435 c 0.357724,-0.5788 -0.84147,-2.4798 -1.564319,-2.4798 -0.522583,0 -1.780667,1.64011 -1.780667,2.32139 0,0.44948 3.07509,0.59512 3.344986,0.15841 z m 1.402447,-1.74987 c 0.111633,-0.18062 0.04163,-0.42812 -0.155568,-0.54999 -0.197192,-0.12187 -0.358531,0.0259 -0.358531,0.3284 0,0.61967 0.211688,0.71091 0.514099,0.22159 z m 2.014295,-1.6704 c -0.180891,-0.32323 -0.25169,-1.16325 -0.157336,-1.86672 0.191827,-1.43017 -0.470062,-2.29754 -1.462606,-1.91667 -0.73569,0.28231 -0.456198,1.94832 0.570544,3.40094 0.749399,1.06024 1.602751,1.37124 1.049398,0.38245 z m 9.113273,-2.73484 c 0,-0.0812 -0.09636,-0.39865 -0.214132,-0.70556 -0.302479,-0.78825 -0.844201,-0.69357 -0.844201,0.14754 0,0.39197 0.235186,0.70555 0.529167,0.70555 0.291041,0 0.529166,-0.0664 0.529166,-0.14753 z m -13.379098,-5.24115 c -0.04364,-0.42182 -0.527505,-0.34013 -0.679097,0.11465 -0.07761,0.23284 0.04939,0.35984 0.282222,0.28223 0.232834,-0.0776 0.411427,-0.25621 0.396875,-0.39688 z m 11.967987,-0.76411 c 0,-0.0856 -0.15875,-0.25368 -0.352778,-0.3736 -0.194028,-0.11991 -0.352778,-0.0499 -0.352778,0.15557 0,0.20548 0.15875,0.3736 0.352778,0.3736 0.194028,0 0.352778,-0.07 0.352778,-0.15557 z m -12.87639,-0.54999 c 0.119917,-0.19402 0.04991,-0.35277 -0.155568,-0.35277 -0.205479,0 -0.373598,0.15875 -0.373598,0.35277 0,0.19403 0.07001,0.35278 0.155568,0.35278 0.08556,0 0.253682,-0.15875 0.373598,-0.35278 z m 42.784096,-4.07655 c -0.44841,-0.44842 -1.63763,0.25323 -2.00094,1.18055 -0.20593,0.52565 -0.64343,1.3526 -0.97223,1.83767 -0.3288,0.48507 0.25543,0.0542 1.29828,-0.95754 1.04285,-1.01171 1.79655,-1.93902 1.67489,-2.06068 z m 1.28428,-0.37091 c 0.30691,-0.11777 0.55802,-0.43029 0.55802,-0.69448 0,-0.59758 -0.93266,-0.28051 -1.19638,0.40672 -0.21625,0.56353 -0.15373,0.59171 0.63836,0.28776 z m -32.603097,-1.90254 c 0,-0.19402 -0.247495,-0.35277 -0.549988,-0.35277 -0.302493,0 -0.451873,0.15875 -0.331957,0.35277 0.119917,0.19403 0.367411,0.35278 0.549988,0.35278 0.182577,0 0.331957,-0.15875 0.331957,-0.35278 z m 53.879457,-0.56591 c -0.11722,-0.11723 -0.4215,-0.12976 -0.67616,-0.0278 -0.28142,0.11262 -0.19783,0.19621 0.21314,0.21314 0.37189,0.0153 0.58025,-0.0681 0.46302,-0.18529 z m -15.86024,-3.865801 c -0.26064,-0.260632 -1.6831,0.467444 -1.6831,0.861481 0,0.15702 -0.39668,0.74674 -0.88152,1.3105 -1.56964,1.82516 -0.9344,1.73076 0.9469,-0.14071 1.0061,-1.00084 1.73407,-1.914915 1.61772,-2.031271 z m -14.90547,1.295241 c 0.78913,-0.852893 1.49623,-1.31342 1.86756,-1.216314 0.92594,0.242139 2.03449,-1.836449 1.50726,-2.826195 -0.33135,-0.622046 -0.18198,-1.450079 0.83025,-4.602268 1.23667,-3.851124 1.28619,-4.446528 0.36983,-4.446528 -0.89873,0 -4.43759,3.669739 -5.84268,6.058772 -1.29607,2.203654 -1.38485,2.533473 -1.38485,5.144678 0,3.824915 0.51878,4.194125 2.65263,1.887855 z m 8.46098,-2.933859 c -0.0291,-1.158441 -0.18669,-1.540464 -0.67436,-1.63438 -1.05228,-0.202654 -1.48316,0.53117 -0.77279,1.316125 0.34028,0.376005 0.58813,0.975068 0.55077,1.331253 -0.11359,1.083035 -0.007,1.280404 0.47382,0.880992 0.26097,-0.216584 0.44406,-1.037223 0.42256,-1.89399 z m 4.04728,0.965352 c 0.23685,-0.285376 0.77222,-0.483814 1.18973,-0.440972 0.46086,0.04729 0.7591,-0.121236 0.7591,-0.42895 0,-0.708356 -2.96963,-0.861106 -3.23619,-0.166462 -0.23209,0.60482 0.0955,1.555253 0.53609,1.555253 0.17636,0 0.51443,-0.233489 0.75127,-0.518869 z m 4.37533,-1.24502 c 0.73544,-0.776111 1.19678,-1.411111 1.02519,-1.411111 -0.17158,0 -0.48911,0.177137 -0.70561,0.393637 -0.21649,0.216496 -0.76278,0.577673 -1.21395,0.802608 -0.79739,0.397542 -1.36307,1.625977 -0.74875,1.625977 0.16828,0 0.90768,-0.635 1.64312,-1.411111 z M 90.621955,92.281436 c -0.624977,-0.624977 -1.071636,0.464549 -0.849813,2.072926 0.33534,2.431436 0.590172,2.54036 0.920764,0.393569 0.222359,-1.443954 0.200762,-2.194782 -0.07095,-2.466495 z m 28.566535,3.286827 c 0,-0.182576 -0.15875,-0.331957 -0.35277,-0.331957 -0.19403,0 -0.35278,0.247495 -0.35278,0.549988 0,0.302493 0.15875,0.451873 0.35278,0.331957 0.19402,-0.119916 0.35277,-0.367411 0.35277,-0.549988 z m 4.26711,-3.724035 c 0.40917,-0.493021 0.38326,-0.552478 -0.19216,-0.440972 -0.3658,0.07089 -0.73116,0.327321 -0.81192,0.569856 -0.20953,0.629317 0.4445,0.545366 1.00408,-0.128884 z m 2.07749,-1.987783 c 0.003,-0.145521 -0.15335,-0.264583 -0.34737,-0.264583 -0.19403,0 -0.35035,0.357187 -0.34738,0.79375 0.004,0.641858 0.0708,0.692489 0.34738,0.264583 0.18808,-0.291041 0.3444,-0.648229 0.34737,-0.79375 z M 114.2496,89.239084 c 0,-0.194028 -0.07,-0.352778 -0.15556,-0.352778 -0.0856,0 -0.25369,0.15875 -0.3736,0.352778 -0.11992,0.194028 -0.0499,0.352778 0.15557,0.352778 0.20547,0 0.37359,-0.15875 0.37359,-0.352778 z m 17.78359,-1.023309 c 0.39723,-0.438937 0.47704,-0.750747 0.23106,-0.902766 -0.47648,-0.294481 -0.97645,0.01263 -1.4446,0.887388 -0.49628,0.92729 0.37824,0.938371 1.21354,0.01538 z M 85.029464,136.12418 c -0.631433,-1.01109 -0.276112,-1.23968 0.586342,-0.37723 0.388055,0.38806 0.612951,0.79816 0.499769,0.91135 -0.35476,0.35476 -0.609109,0.22968 -1.086111,-0.53412 z"
         id="path830"
         inkscape:connector-curvature="0" />
      <path
         style="fill:#417819;stroke-width:0.35277778"
         d="m 97.504915,238.26816 c -0.534995,-0.49582 -0.883543,-0.99066 -0.774552,-1.09965 0.222726,-0.22272 2.299935,1.32523 2.330277,1.73655 0.03785,0.5131 -0.593947,0.25445 -1.555725,-0.6369 z M 52.51349,195.27766 c 0,-1.44668 0.358447,-2.05082 0.933591,-1.57349 0.370695,0.30765 0.718506,0.31337 1.357313,0.0223 1.147999,-0.52306 1.407865,0.0116 0.432251,0.8894 -1.360311,1.22387 -1.772274,1.35084 -1.489209,0.45898 0.18554,-0.58458 0.126259,-0.74734 -0.226787,-0.62265 -0.262897,0.0928 -0.440178,0.50851 -0.393957,0.92368 0.04622,0.41518 -0.07284,0.75487 -0.264584,0.75487 -0.191741,0 -0.348618,-0.38389 -0.348618,-0.85309 z m -5.291667,-2.08633 c 0,-1.52378 -0.171738,-2.73565 -0.423333,-2.98724 -0.665113,-0.66512 -1.551127,-0.49723 -1.954892,0.37041 -0.316125,0.67932 -0.403648,0.70991 -0.607092,0.21217 -0.264997,-0.64834 1.945185,-3.12258 2.789328,-3.12258 0.267324,0 0.886118,-0.47546 1.375092,-1.05657 1.21575,-1.44484 2.100813,-1.11897 1.783133,0.65652 -0.12616,0.7051 -0.4615,1.5482 -0.745197,1.87356 -0.507887,0.58247 -1.157796,2.61344 -1.278252,3.99454 -0.03383,0.38806 -0.204071,0.92852 -0.37828,1.20104 -0.212203,0.33194 -0.189455,0.41681 0.06892,0.25713 0.714794,-0.44177 2.545577,-4.0054 2.545577,-4.95498 0,-0.51781 0.315161,-1.37161 0.700356,-1.89733 0.385194,-0.52572 0.926359,-1.71349 1.202584,-2.63949 0.348298,-1.1676 1.079743,-2.27432 2.38645,-3.61083 1.674502,-1.71269 3.118944,-2.47383 3.118944,-1.6435 0,0.16169 0.222991,0.29398 0.495533,0.29398 0.272542,0 0.414309,-0.21167 0.315034,-0.47037 -0.315877,-0.82316 0.49627,-0.50567 1.11258,0.43494 0.562416,0.85835 0.555371,0.97785 -0.135816,2.30392 -0.40095,0.76923 -0.728998,1.61241 -0.728998,1.87371 0,0.26131 -0.233574,0.66896 -0.519056,0.90589 -0.285482,0.23693 -0.960169,1.36377 -1.499305,2.50409 -0.539137,1.14033 -1.178688,2.07716 -1.421222,2.08186 -0.583089,0.0113 -0.55717,-0.40852 0.07698,-1.24694 0.652956,-0.86329 0.689218,-1.91951 0.06589,-1.91951 -0.630707,0 -1.642177,1.14555 -1.642177,1.85986 0,0.31327 -0.299413,0.77929 -0.66536,1.03562 -0.365947,0.25631 -1.565501,1.65418 -2.665677,3.10636 -1.100173,1.45218 -2.308889,2.75447 -2.686029,2.89399 -0.639466,0.23655 -0.685712,0.0807 -0.685712,-2.31025 z m -4.233334,-0.12974 c 0,-0.74084 -0.09407,-0.85843 -0.423333,-0.52917 -0.232833,0.23283 -0.947208,0.42333 -1.5875,0.42333 -0.996093,0 -1.164167,-0.12316 -1.164167,-0.85309 0,-1.26215 0.355037,-1.96561 1.007882,-1.99698 0.366017,-0.0176 0.417111,-0.0934 0.138646,-0.20579 -0.242535,-0.0979 -0.440972,-0.40781 -0.440972,-0.68877 0,-0.28097 -0.228144,-0.59839 -0.506986,-0.70539 -0.856843,-0.3288 -0.149966,-1.41606 2.098149,-3.22718 1.162152,-0.93625 2.113004,-1.93345 2.113004,-2.21601 0,-0.28255 -0.515938,-0.74082 -1.146528,-1.01837 -2.197512,-0.96722 -1.1356,-2.73407 3.326732,-5.53515 3.805631,-2.38885 5.910959,-3.44307 6.69692,-3.3534 0.977787,0.11155 1.347145,-0.96 0.76859,-2.22979 -0.393175,-0.86292 -0.340889,-1.01691 0.606453,-1.78609 1.632169,-1.32523 2.868814,-1.46074 3.979383,-0.43609 0.515842,0.47593 1.215708,0.963 1.555256,1.08237 0.339549,0.11937 0.617361,0.52734 0.617361,0.90659 0,0.37926 0.381515,1.14297 0.847817,1.69714 1.076995,1.27993 0.731869,2.04115 -1.713777,3.77994 -1.28905,0.91648 -1.857061,1.13978 -2.192062,0.86175 -0.340184,-0.28232 -0.555742,-0.14795 -0.870367,0.54258 -0.320251,0.70287 -0.675756,0.91784 -1.51789,0.91784 -0.663137,0 -1.339518,0.28009 -1.703811,0.70556 -0.332263,0.38805 -0.843795,0.70555 -1.136734,0.70555 -0.326595,0 -0.532621,0.32656 -0.532621,0.84421 0,0.46431 -0.238125,0.93557 -0.529166,1.04726 -0.291042,0.11168 -0.529167,0.42181 -0.529167,0.68918 0,0.64237 -2.366871,3.0638 -2.994773,3.0638 -0.270253,0 -0.589478,-0.15875 -0.709394,-0.35278 -0.418271,-0.67677 -0.891529,-0.3431 -1.433103,1.01043 -0.305165,0.76268 -0.925534,1.53638 -1.408255,1.75632 -0.474545,0.21622 -0.864086,0.59497 -0.865646,0.84166 -0.0016,0.24669 -0.715935,1.07843 -1.5875,1.8483 -0.871565,0.76987 -1.584663,1.52393 -1.584663,1.67569 0,0.53152 0.954983,0.2693 1.595044,-0.43796 0.405874,-0.44848 0.770066,-0.58988 0.979608,-0.38034 0.18345,0.18345 0.545679,0.25214 0.804953,0.15265 0.524802,-0.20139 1.070218,1.36423 0.689731,1.97987 -0.462117,0.74772 -1.247114,0.38284 -1.247114,-0.57967 z m 13.758334,-0.42276 c 0,-0.19084 0.159333,-0.44547 0.354073,-0.56582 0.19474,-0.12036 0.26955,-0.56629 0.16625,-0.99096 -0.304814,-1.25307 1.301203,-3.83904 2.698098,-4.34441 0.963986,-0.34875 1.037731,-0.43611 0.386482,-0.45783 -1.246121,-0.0416 -1.411662,-1.07246 -0.312904,-1.94858 0.517734,-0.41283 0.941335,-1.02244 0.941335,-1.3547 0,-0.72183 0.03532,-0.72697 1.122102,-0.16314 0.944022,0.48977 0.930328,0.4719 1.22465,1.59739 0.154037,0.58904 0.386045,0.74782 0.868825,0.5946 0.890767,-0.28272 1.340185,0.0527 1.132847,0.84558 -0.116992,0.44738 -0.750775,0.79754 -1.995354,1.10242 -1.627445,0.39867 -1.950533,0.644 -2.999532,2.27764 -1.14482,1.78286 -3.586872,4.10301 -3.586872,3.40781 z m -3.175,-0.5442 c 0,-0.30249 0.15875,-0.54999 0.352778,-0.54999 0.194028,0 0.352778,0.14938 0.352778,0.33196 0,0.18257 -0.15875,0.43007 -0.352778,0.54999 -0.194028,0.11991 -0.352778,-0.0295 -0.352778,-0.33196 z m 11.641668,-0.19721 c 0,-0.19403 0.14938,-0.35278 0.331957,-0.35278 0.182576,0 0.430071,0.15875 0.549987,0.35278 0.119916,0.19403 -0.02946,0.35278 -0.331957,0.35278 -0.302493,0 -0.549987,-0.15875 -0.549987,-0.35278 z m 5.115278,-5.99722 c -0.119916,-0.19403 -0.05928,-0.35278 0.13475,-0.35278 0.194028,0 0.450889,0.15875 0.570805,0.35278 0.119917,0.19402 0.05928,0.35277 -0.13475,0.35277 -0.194028,0 -0.450889,-0.15875 -0.570805,-0.35277 z m 25.821179,-0.94766 c -0.318339,-0.51508 0.876988,-4.19094 2.712396,-8.34112 0.717811,-1.6231 1.228436,-2.21889 2.669376,-3.11463 0.97997,-0.60919 1.78177,-1.2503 1.78177,-1.42469 0,-0.44042 2.15445,-1.30471 2.71556,-1.08939 0.25269,0.097 0.45944,0.39186 0.45944,0.65532 0,0.26345 0.3175,0.64893 0.70556,0.85661 0.41259,0.22081 0.70555,0.73865 0.70555,1.24713 0,0.50516 0.20451,0.86954 0.48803,0.86954 0.26841,0 0.58601,0.27781 0.70578,0.61736 0.11977,0.33955 0.31828,0.83987 0.44115,1.11183 0.16662,0.36881 0.0269,0.4431 -0.54954,0.29234 -0.50673,-0.13251 -0.72043,-0.0598 -0.62049,0.21109 0.0838,0.22727 0.3508,0.36693 0.59323,0.31038 0.29841,-0.0696 0.38386,0.19503 0.26454,0.81922 -0.13986,0.73167 -0.003,0.98785 0.66163,1.24064 0.46084,0.17521 0.8379,0.55357 0.8379,0.84081 0,0.45463 -0.19414,0.44925 -1.49931,-0.0416 -0.91588,-0.34442 -2.70899,-0.57856 -4.60801,-0.60171 l -3.10871,-0.0379 -1.47741,1.62727 c -0.812566,0.895 -1.964594,2.23604 -2.560055,2.98008 -0.646881,0.80829 -1.177537,1.19927 -1.318387,0.97138 z m -32.456161,-4.98956 c -0.200067,-1.0466 0.663565,-3.01693 1.181951,-2.69655 0.581963,0.35967 0.368398,2.25312 -0.333277,2.9548 -0.659521,0.65952 -0.674077,0.65509 -0.848674,-0.25825 z m 30.691179,-1.8762 c -0.147684,-1.76154 -0.07176,-2.7883 0.251851,-3.40593 0.340992,-0.6508 0.370181,-1.18748 0.110589,-2.03331 -0.193971,-0.63202 -0.249075,-1.41911 -0.122453,-1.74908 0.408863,-1.06548 1.36548,0.11585 1.205244,1.48838 -0.111209,0.95258 -0.01531,1.16613 0.523777,1.16613 0.76962,0 1.667852,0.79912 1.667852,1.48381 0,0.26173 -0.21444,0.78901 -0.476532,1.17173 -0.262097,0.38272 -0.576146,1.10662 -0.697894,1.60867 -0.23731,0.97862 -1.519907,2.79135 -1.975012,2.79135 -0.151804,0 -0.371143,-1.13479 -0.487422,-2.52175 z m -63.126474,-2.69733 c -1.98173,-0.24403 -2.108504,-2.58287 -0.250279,-4.61736 1.176214,-1.28779 1.382025,-2.51078 0.422528,-2.51078 -0.341901,0 -1.8721,0.39687 -3.400444,0.88194 -1.528343,0.48507 -3.079214,0.88195 -3.44638,0.88195 -0.939128,0 -1.177938,-0.90788 -0.507828,-1.93059 0.805122,-1.22877 0.720397,-1.52403 -0.595045,-2.07366 -1.054396,-0.44055 -3.072255,-2.40658 -3.069015,-2.99018 0.004,-0.72231 1.573459,-2.62504 2.808119,-3.40445 1.572754,-0.99283 1.627483,-1.12057 0.89481,-2.08851 -0.278655,-0.36814 -0.422988,-0.8047 -0.320738,-0.97014 0.102249,-0.16544 1.883101,-0.30643 3.957449,-0.31331 2.544486,-0.008 4.058479,-0.17229 4.653486,-0.50365 0.982596,-0.54721 0.995503,-0.53778 -1.940278,-1.41725 -1.218737,-0.3651 -3.377501,-0.52959 -6.98488,-0.53222 -6.989753,-0.005 -8.231657,-0.60678 -6.685259,-3.23878 0.594635,-1.01208 0.592153,-1.06928 -0.06743,-1.55374 -0.376633,-0.27663 -0.957833,-0.50297 -1.291557,-0.50297 -0.333723,0 -1.031821,-0.50514 -1.551328,-1.12254 -1.176519,-1.39822 -1.011785,-2.64305 0.592142,-4.4746 1.047251,-1.19587 1.288424,-1.29388 3.588867,-1.45841 2.693945,-0.19268 3.399778,-0.78037 1.755625,-1.46175 -5.046585,-2.09145 -6.465906,-3.11534 -6.465906,-4.66447 0,-0.51563 0.399196,-1.20252 0.985628,-1.69597 1.419459,-1.1944 1.465003,-1.34734 0.97539,-3.27563 -0.821238,-3.23437 0.428953,-5.55591 3.243846,-6.02367 2.052079,-0.34099 2.212337,-0.43756 2.607488,-1.57108 0.598296,-1.71628 2.583112,-1.19985 3.997054,1.03998 0.494695,0.78364 1.135579,1.42481 1.424187,1.42481 0.626207,0 0.646855,-0.24998 0.140607,-1.7022 -0.302121,-0.86667 -0.260591,-1.47388 0.194514,-2.84408 0.318257,-0.95818 0.809996,-1.83092 1.092754,-1.93943 0.738552,-0.28341 1.961881,0.27002 2.953801,1.33628 0.547314,0.58833 1.084563,0.85084 1.482697,0.72448 0.466481,-0.14805 0.80881,0.16336 1.353708,1.23144 0.791345,1.55117 0.910312,1.60615 2.317705,1.07106 0.838051,-0.31863 0.918318,-0.49059 0.720702,-1.54397 -0.231881,-1.23604 0.255728,-3.02088 0.940991,-3.44439 0.218923,-0.1353 0.861089,-0.007 1.427037,0.28611 0.565947,0.29266 1.386491,0.44239 1.823431,0.33272 0.957833,-0.2404 1.632332,0.43182 2.531771,2.52323 0.354639,0.82462 0.736697,1.4993 0.849017,1.4993 0.11232,0 0.469178,-0.55562 0.793017,-1.23472 0.323839,-0.6791 0.801819,-1.23472 1.062178,-1.23472 0.929506,0 2.026607,1.65408 2.361654,3.56061 1.086161,6.18067 3.43613,12.66717 4.589138,12.66717 0.52209,0 0.412122,-0.70721 -0.382287,-2.4585 -0.39333,-0.8671 -0.808295,-2.25617 -0.922147,-3.08681 l -0.207003,-1.51025 h 1.226657 1.226655 l -0.02755,-2.02915 c -0.03133,-2.30608 0.942537,-4.4286 2.110659,-4.6001 0.39552,-0.0581 1.06741,0.28757 1.542937,0.79375 0.908509,0.96706 1.747958,1.13799 2.397721,0.48823 0.618864,-0.61886 1.436667,0.23382 1.694477,1.76675 0.502225,2.98621 1.043185,3.29023 2.241292,1.25959 1.449409,-2.45657 2.501128,-0.69571 3.598651,6.0251 0.731909,4.48192 0.901228,5.02852 1.829954,5.90768 1.213983,1.14918 1.713329,0.98732 1.423571,-0.46146 -0.277061,-1.38532 0.815711,-4.82613 1.679568,-5.28845 1.03456,-0.55368 1.910328,0.12681 2.981876,2.31698 0.695487,1.42152 0.901227,2.27381 0.759587,3.14664 -0.117934,0.72674 -0.01094,1.44777 0.272344,1.83517 0.415756,0.56859 0.566505,0.58465 1.383472,0.14742 0.504281,-0.26988 1.03192,-0.37565 1.172531,-0.23504 0.325557,0.32556 0.35543,5.7197 0.03348,6.04217 -0.53134,0.53216 -0.9779,-0.21669 -0.545412,-0.91462 0.354637,-0.5723 0.337235,-0.76279 -0.09542,-1.04441 -0.291042,-0.18944 -0.870871,-0.30473 -1.288507,-0.2562 -1.042949,0.12121 -2.180954,-1.00127 -2.445664,-2.4123 -0.121105,-0.64555 -0.441709,-1.35757 -0.712456,-1.58227 -0.270774,-0.22469 -0.492294,-1.01473 -0.492294,-1.75563 0,-0.7409 -0.14732,-1.43815 -0.327378,-1.54943 -0.545169,-0.33693 -1.132385,1.92913 -1.092934,4.21764 0.107696,6.24757 0.232061,8.53862 0.484731,8.92986 0.186986,0.28954 0.0836,0.70138 -0.275759,1.09847 -0.532092,0.58795 -0.528095,0.71749 0.05363,1.73943 0.345698,0.60729 0.807541,1.10517 1.026319,1.1064 0.218775,0.001 0.587569,0.23091 0.819542,0.51042 0.231972,0.27951 0.645587,0.42231 0.919145,0.31734 0.408354,-0.1567 0.43077,2e-4 0.125243,0.87664 -0.298454,0.85615 -0.254314,1.24731 0.222959,1.97571 0.684728,1.04503 1.10114,1.1247 1.934891,0.37016 0.74749,-0.67647 0.989528,-0.39313 2.117076,2.47835 0.795197,2.02508 1.278167,2.59086 4.731424,5.54262 1.018565,0.87065 1.0241,0.89401 0.303199,1.27982 -0.922966,0.49396 -3.267086,-0.24993 -6.196299,-1.96634 -1.678009,-0.98325 -2.21245,-1.54623 -3.058019,-3.22129 -0.563552,-1.11639 -1.275722,-2.23818 -1.582597,-2.49287 -0.306874,-0.25468 -0.557953,-0.59642 -0.557953,-0.75941 0,-0.16299 -0.322464,-1.15821 -0.716587,-2.2116 -0.462799,-1.23693 -0.962565,-1.97957 -1.411111,-2.09687 -0.463504,-0.12121 -0.694524,-0.005 -0.694524,0.34897 0,0.6433 2.771101,6.38568 3.213477,6.65908 0.488679,0.30202 0.369715,1.56372 -0.14744,1.56372 -0.253957,0 -0.769895,-0.23308 -1.146527,-0.51795 -0.376633,-0.28487 -1.09994,-0.52299 -1.607351,-0.52917 -0.507411,-0.006 -1.326201,-0.32871 -1.819533,-0.71677 -0.493332,-0.38806 -1.284849,-0.70556 -1.758922,-0.70556 -0.977988,0 -3.355813,-1.18992 -5.540975,-2.77284 -1.609771,-1.16611 -3.797529,-2.02606 -4.180396,-1.64319 -0.132214,0.13221 0.03717,0.44335 0.376414,0.69141 0.339245,0.24806 0.621856,0.90977 0.628026,1.47046 0.0062,0.56069 0.244298,1.3276 0.529167,1.70423 0.284871,0.37663 0.517948,0.89257 0.517948,1.14653 0,0.58466 -1.548846,0.60201 -2.468527,0.0277 -0.576238,-0.35987 -0.801014,-0.32814 -1.314775,0.18563 -0.566544,0.56654 -0.573271,0.70214 -0.07839,1.5806 0.416927,0.7401 0.760673,0.93483 1.495947,0.84745 0.879542,-0.10451 0.954638,-0.015 0.954638,1.13771 0,1.2202 -0.02836,1.24587 -1.146528,1.03748 -0.63059,-0.11752 -1.305278,-0.23261 -1.499306,-0.25576 -0.194028,-0.0231 -0.40301,0.39447 -0.464404,0.92804 -0.122107,1.06122 -0.471988,1.22551 -1.071506,0.50314 -0.283728,-0.34187 -0.272461,-0.58213 0.04205,-0.89663 0.337654,-0.33766 0.316978,-0.50086 -0.09659,-0.76232 -0.88592,-0.56009 -1.055384,-0.3963 -1.055384,1.02005 0,0.82936 -0.276405,1.71493 -0.705556,2.26051 -0.388055,0.49333 -0.705555,1.07036 -0.705555,1.28229 0,0.21193 -0.515938,0.39823 -1.146528,0.41399 -3.880955,0.097 -11.3637,1.94039 -14.563113,3.58762 -1.450853,0.74699 -3.333806,1.18443 -4.487024,1.04242 z m 21.999602,-12.33161 c 0.06625,-1.64589 -0.09173,-2.71476 -0.469268,-3.175 -0.557809,-0.68001 -0.882103,-0.53034 -1.146521,0.52916 -0.133166,0.53358 -0.474729,1.22834 -0.75903,1.54391 -0.454907,0.50495 -0.451608,0.59884 0.02748,0.78268 0.299416,0.1149 0.544396,0.45201 0.544396,0.74915 0,0.34107 0.325145,0.54023 0.881944,0.54023 0.717469,0 0.889226,-0.18092 0.920994,-0.97013 z m 1.72484,-8.55487 c 0,-0.19402 -0.168119,-0.35277 -0.373598,-0.35277 -0.205479,0 -0.275484,0.15875 -0.155568,0.35277 0.119916,0.19403 0.288036,0.35278 0.373599,0.35278 0.08556,0 0.155567,-0.15875 0.155567,-0.35278 z m 14.911036,-1.32291 c -0.356542,-0.93166 -3.322408,-4.73886 -3.529955,-4.53131 -0.217445,0.21744 1.525352,3.65844 2.295014,4.53131 0.299403,0.33955 0.752909,0.61736 1.007787,0.61736 0.296172,0 0.378154,-0.22281 0.227154,-0.61736 z m -15.728383,-0.50712 c -0.112614,-0.28142 -0.196208,-0.19783 -0.213134,0.21314 -0.01531,0.37188 0.06806,0.58024 0.185286,0.46302 0.117224,-0.11723 0.129755,-0.4215 0.02783,-0.67616 z m -0.593764,-2.75608 c 0,-0.19402 -0.168119,-0.35277 -0.373598,-0.35277 -0.205479,0 -0.275485,0.15875 -0.155568,0.35277 0.119916,0.19403 0.288036,0.35278 0.373598,0.35278 0.08556,0 0.155568,-0.15875 0.155568,-0.35278 z m 16.933335,-2.79925 c 0,-0.56946 -0.158687,-1.45275 -0.352634,-1.96287 -0.294417,-0.77437 -0.538402,-0.90921 -1.477856,-0.81671 -0.942605,0.0928 -1.158914,-0.0281 -1.332795,-0.74501 -0.286279,-1.18033 -0.997645,-1.31942 -1.266638,-0.24766 -0.262759,1.04691 0.02275,1.63261 0.795877,1.63261 0.629561,0 1.489217,0.98456 1.506161,1.725 0.01277,0.55758 1.026223,1.42198 1.686912,1.43879 0.255158,0.006 0.440973,-0.42506 0.440973,-1.02415 z m -6.636174,-3.56488 c -0.72099,-2.2825 -4.360563,-9.85068 -4.74091,-9.85833 -0.835029,-0.0168 0.536451,3.97028 1.773516,5.15583 0.37859,0.36283 1.030009,1.58543 1.447592,2.71689 1.505331,4.07879 2.655764,5.58181 1.519802,1.98561 z m 1.344507,-11.25394 c 0,-1.34674 -0.157417,-2.54591 -0.349818,-2.66482 -0.221033,-0.1366 -0.33117,0.76485 -0.299166,2.44862 0.06357,3.34431 0.648984,3.53934 0.648984,0.2162 z m 32.263166,40.12817 c -0.139125,-0.44785 -0.559664,-1.24974 -0.934533,-1.782 -1.416897,-2.01175 0.439766,-2.0247 2.20399,-0.0154 1.266516,1.44249 1.237629,2.35007 -0.07966,2.50292 -0.720728,0.0836 -0.995193,-0.0791 -1.189796,-0.70555 z m 10.333483,-1.5753 c -0.53397,-1.17193 0.1776,-1.79972 2.20613,-1.9464 1.56059,-0.11284 1.58937,-0.0953 1.69805,1.03174 0.0608,0.63059 -0.0186,1.15344 -0.17639,1.16189 -0.15782,0.008 -0.97373,0.1481 -1.81315,0.31033 -1.40814,0.27215 -1.55626,0.22901 -1.91464,-0.55756 z m -6.96325,-1.34702 c -0.36741,-1.11325 -0.31736,-1.34057 0.54368,-2.46945 0.52158,-0.68383 1.13994,-1.24333 1.37413,-1.24333 0.49763,0 1.9599,1.47467 1.9599,1.97651 0,0.32485 -2.94082,2.96238 -3.30302,2.96238 -0.0935,0 -0.35213,-0.55175 -0.57469,-1.22611 z m 11.51332,-1.76712 c -0.22834,-0.59503 0.4739,-1.03968 2.1403,-1.35524 1.40085,-0.26528 1.64024,0.0574 0.80648,1.08704 -0.74349,0.91817 -2.63143,1.09 -2.94678,0.2682 z m -18.17915,-1.30748 c -1.338107,-2.14265 -2.466732,-14.74229 -2.247068,-25.08562 0.0754,-3.5505 0.149927,-3.91085 1.094381,-5.29167 0.55741,-0.81495 1.372436,-2.5136 1.811175,-3.77478 1.434268,-4.12287 4.578932,-8.81941 5.905232,-8.81943 0.48882,-1e-5 0.71797,-0.16865 0.61032,-0.44918 -0.10058,-0.2621 0.26773,-0.61528 0.88439,-0.84804 0.80811,-0.30503 1.29935,-0.92562 2.08787,-2.63764 0.56712,-1.23132 1.12851,-2.53445 1.24753,-2.89585 0.17698,-0.5374 0.31203,-0.57773 0.74139,-0.22139 0.59235,0.4916 0.70699,1.40764 0.17616,1.40764 -0.19185,0 -0.33706,0.35719 -0.32269,0.79375 0.0144,0.43657 -0.20468,1.70657 -0.4868,2.82223 -0.28212,1.11566 -0.41472,2.02801 -0.29467,2.02745 0.12005,-7.1e-4 0.61514,-0.75167 1.10021,-1.66914 0.78091,-1.477 1.05848,-1.7025 2.42283,-1.96824 1.76517,-0.34381 2.56673,0.0814 1.82907,0.9702 -0.33406,0.40252 -0.61388,0.44656 -1.11917,0.17613 -1.14841,-0.61461 -1.23237,0.28352 -0.49678,5.31429 0.0709,0.48507 0.14185,0.94107 0.15762,1.01333 0.0158,0.0723 0.2417,-0.0454 0.50209,-0.26152 0.26038,-0.2161 0.57363,-0.2927 0.69611,-0.17023 0.22748,0.22748 -0.74451,1.53494 -3.2393,4.35731 -1.34279,1.51911 -1.42518,1.55822 -1.91244,0.90782 -0.48625,-0.64905 -0.55847,-0.61167 -1.60248,0.82954 -0.6013,0.83008 -1.18894,1.81063 -1.30585,2.17899 -0.24464,0.77078 -0.70577,0.86622 -1.10543,0.22879 -0.2681,-0.42759 -0.40903,0.0511 -1.12584,3.82361 -0.313024,1.6474 -1.618637,3.67292 -2.367504,3.67292 -0.467374,0 -0.667688,0.44551 -0.533551,1.18664 0.09593,0.53001 -1.078879,4.2599 -1.504245,4.77583 -0.277724,0.33685 -0.44275,3.34421 -0.517835,9.4368 -0.06061,4.91832 -0.220867,8.94239 -0.356115,8.94239 -0.135245,0 -0.46312,-0.34782 -0.72861,-0.77293 z m 8.0741,-33.69033 c 0,-0.47574 -0.70176,-0.6705 -0.71037,-0.19715 -0.003,0.14552 -0.0938,0.66146 -0.20257,1.14652 -0.19087,0.85122 -0.17841,0.85809 0.35759,0.19716 0.30544,-0.37663 0.55535,-0.89257 0.55535,-1.14653 z m 0.70556,-3.20019 c 0,-0.46185 0.25938,-1.09911 0.57641,-1.41614 0.38554,-0.38553 0.4419,-0.62124 0.17021,-0.71181 -0.92506,-0.30835 -2.52466,2.92897 -1.92593,3.89775 0.32799,0.53068 1.17931,-0.74692 1.17931,-1.7698 z m 2.57157,0.62143 c -0.10143,-0.38786 -0.32466,-0.7052 -0.49605,-0.7052 -0.35759,0 -0.42446,1.1807 -0.086,1.51912 0.409,0.409 0.76991,-0.0957 0.58209,-0.81392 z m -3.62991,-3.8802 c 0,-0.85342 -0.57035,-1.21396 -0.8339,-0.52714 -0.25849,0.67359 0.10361,1.64241 0.51809,1.38624 0.1737,-0.10735 0.31581,-0.49395 0.31581,-0.8591 z m 1.25168,-1.79667 c 0.563,-1.08872 0.50622,-1.6343 -0.1292,-1.24158 -0.30129,0.1862 -0.79935,2.3327 -0.54127,2.3327 0.0584,0 0.36014,-0.49101 0.67047,-1.09112 z m -27.710013,24.94681 c 0,-0.0733 0.238125,-0.33082 0.529167,-0.57236 0.433391,-0.35968 0.529166,-0.33558 0.529166,0.13319 0,0.3148 -0.238125,0.57237 -0.529166,0.57237 -0.291042,0 -0.529167,-0.0599 -0.529167,-0.1332 z m 31.805703,-3.74736 c 0,-0.48507 0.0801,-0.68351 0.17794,-0.44097 0.0979,0.24253 0.0979,0.63941 0,0.88194 -0.0979,0.24254 -0.17794,0.0441 -0.17794,-0.44097 z m -33.721202,-0.5918 c -0.127399,-0.332 0.0052,-0.82411 0.302073,-1.12096 0.470369,-0.47038 0.554401,-0.46342 0.75626,0.0626 0.263688,0.68715 -0.03111,1.65013 -0.505131,1.65013 -0.179356,0 -0.428297,-0.26631 -0.553202,-0.5918 z m 35.440582,-6.11098 c 0.0305,-0.47801 1.01165,-1.41111 1.48381,-1.41111 0.79757,0 1.47832,0.92331 0.93041,1.26194 -0.48619,0.30048 -2.43153,0.42068 -2.41422,0.14917 z m -7.56064,-1.62278 c -0.12913,-0.33653 -0.076,-0.77061 0.11798,-0.96464 0.23519,-0.23519 0.43105,-0.14883 0.58758,0.25909 0.12914,0.33653 0.076,0.77062 -0.11798,0.96464 -0.23519,0.23519 -0.43105,0.14883 -0.58758,-0.25909 z m 13.63632,-2.91599 c 0.23701,-2.61385 0.73794,-3.57512 1.86304,-3.57512 1.00498,0 1.20662,1.04497 0.34037,1.76389 -0.29105,0.24154 -0.52917,0.87169 -0.52917,1.40033 0,0.91189 -1.00522,2.48023 -1.58968,2.48023 -0.14971,0 -0.18777,-0.9312 -0.0846,-2.06933 z m 15.43257,0.86319 c 0,-0.78029 1.18483,-2.66971 1.6757,-2.67219 0.57532,-0.003 0.55779,0.20147 -0.15609,1.81951 -0.58364,1.32285 -1.51961,1.84804 -1.51961,0.85268 z M 91.671826,135.1002 c 0,-0.19403 0.15875,-0.35278 0.352777,-0.35278 0.194028,0 0.352778,0.15875 0.352778,0.35278 0,0.19402 -0.15875,0.35277 -0.352778,0.35277 -0.194027,0 -0.352777,-0.15875 -0.352777,-0.35277 z m 0.0046,-3.61598 c -0.184527,-4.26918 -0.106454,-15.39968 0.155275,-22.1368 0.244267,-6.28761 0.378848,-7.43629 1.030658,-8.79685 0.807198,-1.684903 1.954573,-2.647059 2.235571,-1.87468 0.276599,0.760278 0.807191,0.480617 0.807191,-0.425447 0,-0.476532 0.444355,-1.627469 0.987456,-2.557639 0.543098,-0.930172 1.208039,-2.246845 1.477638,-2.925942 0.816812,-2.057453 2.097575,-3.885004 3.015875,-4.303406 0.47797,-0.217776 0.86903,-0.596526 0.86903,-0.841668 0,-0.410905 0.4735,-0.847715 2.79101,-2.574733 0.58258,-0.434145 0.91616,-1.115278 1.05833,-2.161004 0.19182,-1.410771 1.08957,-2.480963 1.08957,-1.298831 0,0.286452 0.24962,0.616612 0.55472,0.733689 0.75283,0.288889 1.91472,-0.380003 1.91472,-1.102293 0,-0.456797 0.0941,-0.493236 0.42334,-0.163976 0.66899,0.668997 1.58426,0.496894 2.31797,-0.435863 0.97718,-1.242283 4.53735,-2.902018 6.74388,-3.143967 1.04526,-0.114614 2.16901,-0.451414 2.49723,-0.748446 0.32821,-0.297032 0.78269,-0.540058 1.00995,-0.540058 0.86263,0 0.34459,0.717509 -1.61528,2.237231 -1.11566,0.865103 -2.57556,2.144381 -3.24421,2.842841 -0.66865,0.698461 -1.49126,1.269928 -1.82803,1.269928 -0.63668,0 -7.11378,5.355763 -9.76787,8.076819 -2.24209,2.298662 -3.59127,5.186052 -3.59793,7.699926 -0.007,2.537529 -0.22302,2.881769 -1.76261,2.805249 -1.030365,-0.0512 -1.248963,0.0681 -1.343437,0.73336 -0.06206,0.43699 -0.458933,0.9767 -0.881945,1.19934 -0.423012,0.22265 -0.881563,0.57817 -1.019006,0.79003 -0.176702,0.27239 -0.378184,0.25692 -0.687916,-0.0528 -0.797183,-0.79718 -1.943541,-0.51446 -2.402022,0.5924 -0.234749,0.56674 -0.360348,1.3208 -0.279107,1.6757 0.123606,0.53996 0.224306,0.48694 0.617036,-0.32487 0.651585,-1.3469 1.479822,-1.2535 2.346266,0.26458 0.248902,0.4361 0.703901,0.67042 1.191383,0.61357 0.710099,-0.0828 0.766223,0.0203 0.563252,1.03519 -0.123987,0.61994 -0.486953,1.41614 -0.806591,1.76933 -0.550457,0.60825 -0.973945,2.22315 -1.416452,5.40135 -0.10806,0.77611 -0.304567,1.49049 -0.436683,1.5875 -0.132119,0.097 -0.434897,1.60514 -0.672842,3.35139 -0.498599,3.65918 -0.493152,3.52534 -0.203994,5.01162 0.165125,0.84874 0.0345,1.36694 -0.523279,2.07605 -0.408827,0.51974 -0.743324,1.39165 -0.743324,1.93757 0,0.55432 -0.367898,1.38955 -0.833226,1.89164 -0.570773,0.61588 -0.780058,1.1772 -0.664428,1.78207 0.119281,0.62399 0.01393,0.883 -0.359153,0.883 -0.391534,0 -0.548629,-0.47854 -0.607998,-1.85209 z m 5.992601,-30.28843 c 0,-0.3673 -0.15875,-0.66782 -0.352778,-0.66782 -0.194027,0 -0.352777,0.14577 -0.352777,0.32393 0,0.17816 -0.09705,0.57683 -0.215668,0.88594 -0.15785,0.41136 -0.06328,0.50355 0.352778,0.34389 0.312646,-0.11997 0.568445,-0.51865 0.568445,-0.88594 z m 23.129653,30.41337 c -0.3383,-0.54739 0.14575,-2.76599 0.7047,-3.22987 0.39387,-0.32689 0.44248,-0.0981 0.27833,1.31034 -0.20972,1.79943 -0.59378,2.54935 -0.98303,1.91953 z m 7.94748,-0.32845 c -0.49207,-0.91943 -0.49714,-2.41985 -0.009,-2.72141 0.61541,-0.38034 0.76918,0.0745 0.31322,0.9265 -0.35936,0.67149 -0.32541,0.86961 0.21704,1.26626 0.46896,0.34292 0.53766,0.57563 0.25374,0.85956 -0.28392,0.28391 -0.49369,0.19432 -0.77479,-0.33091 z m -17.42445,-5.71867 c -0.12716,-0.48625 0.11509,-0.99972 0.749,-1.5875 0.51532,-0.47783 0.7495,-0.86879 0.5204,-0.86879 -0.22911,0 -0.51466,0.15875 -0.63458,0.35278 -0.4293,0.69462 -0.92675,0.33537 -0.81718,-0.59016 0.14279,-1.20617 1.95211,-1.9699 2.47085,-1.04296 0.17692,0.31614 0.5519,0.57479 0.8333,0.57479 0.2814,0 0.51164,0.17641 0.51164,0.39203 0,0.25903 0.43071,0.31124 1.26945,0.15389 0.85991,-0.16132 1.19462,-0.11708 1.03751,0.13713 -0.12756,0.2064 -0.421,0.37977 -0.65209,0.38525 -0.23108,0.006 -1.36924,0.64049 -2.52924,1.41111 -1.16,0.77063 -2.21305,1.40114 -2.34011,1.40114 -0.12705,0 -0.31558,-0.32342 -0.41895,-0.71871 z m 2.73072,-4.73813 c -0.66766,-0.50498 -0.66493,-0.51822 0.10896,-0.52916 0.47536,-0.007 0.79375,0.20104 0.79375,0.51795 0,0.65377 -0.0523,0.65442 -0.90271,0.0112 z m -16.98799,-1.8633 c 0.09298,-0.92163 0.359668,-2.31069 0.592628,-3.0868 0.23296,-0.77611 0.541902,-2.12549 0.686537,-2.99861 0.278187,-1.67936 1.385923,-3.92064 2.046595,-4.14086 0.701,-0.23366 0.86529,1.26473 0.27506,2.50855 -0.31532,0.66448 -0.61067,2.13702 -0.65634,3.27231 -0.04567,1.13529 -0.273331,2.41091 -0.50591,2.83472 -0.23258,0.42381 -0.422872,0.99145 -0.422872,1.26142 0,0.51089 -1.427268,2.02497 -1.908866,2.02497 -0.151744,0 -0.199817,-0.75407 -0.106832,-1.6757 z m -18.02612,-2.54312 c -0.623284,-0.84304 -0.75147,-1.35309 -0.575624,-2.29043 0.300658,-1.60263 -0.421291,-3.79727 -1.200337,-3.64888 -0.320985,0.0611 -0.63434,0.46673 -0.696341,0.90132 -0.062,0.43458 -0.254254,0.79014 -0.427232,0.79014 -0.369273,0 -1.753094,-1.42496 -1.753094,-1.80521 0,-0.14358 -0.207295,-0.47084 -0.460653,-0.72723 -0.253362,-0.2564 -0.838218,-1.14086 -1.299687,-1.96548 -0.471935,-0.84333 -1.100398,-1.4993 -1.436426,-1.4993 -0.752066,0 -1.527521,-0.90214 -1.212956,-1.41111 0.130422,-0.21103 0.05105,-0.60791 -0.176389,-0.88195 -0.227436,-0.27404 -0.317888,-0.65299 -0.201006,-0.84211 0.116883,-0.18912 0.05117,-0.44357 -0.146018,-0.56544 -0.197192,-0.12187 -0.358532,0.006 -0.358532,0.2852 0,0.27874 -0.209257,0.68046 -0.465014,0.89272 -0.553561,0.45941 -2.00443,-0.39439 -2.00443,-1.17956 0,-0.26799 -0.718926,-1.00354 -1.597611,-1.63456 -0.878685,-0.63103 -1.691037,-1.519559 -1.805224,-1.974515 -0.114187,-0.45496 -0.648053,-1.054958 -1.186363,-1.333331 -0.538315,-0.27837 -1.147354,-0.947515 -1.353418,-1.48699 -0.481468,-1.260461 -1.044702,-1.932937 -2.307597,-2.755166 -0.560049,-0.364632 -1.236868,-1.186142 -1.50404,-1.825576 -0.523692,-1.25337 -1.187916,-1.476294 -1.887415,-0.633448 -0.669152,0.806281 -1.731017,0.634513 -2.180854,-0.352778 -0.449654,-0.986881 -0.667219,-1.067759 -1.264804,-0.470175 -0.49179,0.49179 -0.7181,0.04577 -0.924923,-1.82288 -0.07516,-0.679097 -0.159689,-1.393472 -0.187833,-1.5875 -0.02815,-0.194028 -0.362328,0.02069 -0.742633,0.477143 -0.445957,0.535258 -0.619524,1.116548 -0.488844,1.637209 0.228395,0.909998 -0.220864,1.345071 -1.057441,1.024051 -0.723134,-0.277495 -0.72076,-1.073662 0.0044,-1.479487 0.683002,-0.382228 0.516354,-1.655151 -0.218405,-1.668241 -0.847523,-0.0151 -1.389379,-0.50373 -1.1758,-1.060306 0.109298,-0.284828 0.02299,-0.517869 -0.191796,-0.517869 -0.214787,0 -0.390521,0.15875 -0.390521,0.352777 0,0.503136 -1.254776,0.437056 -1.691426,-0.08908 -0.201688,-0.243019 -0.70081,-1.289483 -1.10916,-2.325474 -0.851156,-2.159402 -0.624679,-3.777234 0.730737,-5.220008 0.65769,-0.700079 1.127408,-0.832109 2.960357,-0.832109 1.860851,0 2.391733,0.15437 3.639617,1.058333 0.803543,0.582083 1.61392,1.058333 1.800835,1.058333 0.186916,0 0.444232,-0.595312 0.571818,-1.322916 0.465878,-2.65689 1.692653,-3.501792 3.567413,-2.456944 0.866454,0.482896 2.797887,3.019561 3.295343,4.327966 0.479869,1.262152 0.991013,1.061752 1.738263,-0.681507 0.36413,-0.849482 1.089526,-1.940886 1.61199,-2.425344 0.926913,-0.85948 0.935232,-0.903276 0.343168,-1.806876 -1.326631,-2.024696 0.594385,-0.785051 4.589657,2.961734 1.164167,1.091762 2.355843,2.132079 2.648169,2.311816 0.292322,0.179736 1.086072,1.090755 1.763889,2.024485 0.677813,0.933731 1.589574,2.147272 2.026137,2.696759 0.436562,0.549487 0.788702,1.214276 0.782532,1.477309 -0.0076,0.325334 -0.168307,0.270943 -0.502529,-0.170118 -0.781519,-1.03133 -1.710669,-0.588298 -2.084899,0.994107 -0.43415,1.835784 0.210608,6.681987 1.168855,8.785474 0.398329,0.874385 0.724235,1.696604 0.724235,1.827156 0,0.130553 0.473957,0.777173 1.053236,1.436935 1.380638,1.572451 1.629244,2.650211 0.876374,3.799231 -0.655782,1.00085 -0.193276,1.24511 0.688319,0.36351 0.730148,-0.73014 1.262627,-0.35074 1.262627,0.89966 0,0.65918 -0.307421,1.25372 -0.881944,1.70564 -0.48507,0.38156 -0.881945,0.93934 -0.881945,1.23951 0,0.8752 -0.636422,1.02298 -1.053045,0.24451 -0.210591,-0.39349 -0.560659,-0.71543 -0.777932,-0.71543 -0.222712,0 -0.140349,0.28143 0.1888,0.64513 0.321116,0.35483 0.583844,1.05984 0.583844,1.56668 0,1.20466 0.683373,1.60047 1.30217,0.75422 0.421975,-0.57709 0.535622,-0.59671 0.823023,-0.14209 0.183395,0.29009 0.33588,0.79907 0.33885,1.13106 0.0028,0.332 0.299392,0.88762 0.65871,1.23472 0.858824,0.82963 1.145054,2.08201 0.727093,3.18133 -0.228801,0.60179 -0.210643,1.03953 0.05648,1.36138 0.216542,0.26092 0.335961,0.64765 0.265373,0.85941 -0.07058,0.21176 -0.489168,-0.10304 -0.930183,-0.69955 z m -3.947072,-11.86197 c 0,-0.30721 -0.188517,-0.49573 -0.418924,-0.41892 -0.654127,0.21804 -0.762621,0.97748 -0.13964,0.97748 0.30721,0 0.558564,-0.25135 0.558564,-0.55856 z m -2.204861,-3.14502 c 0.436562,-0.67398 0.79375,-1.39083 0.79375,-1.593021 0,-0.398544 -2.046489,-0.298101 -2.746975,0.134821 -0.639547,0.39526 -0.516259,1.90033 0.189336,2.3113 0.874141,0.50914 0.884862,0.50396 1.763889,-0.8531 z m -2.284942,-7.003997 c -0.209148,-1.094091 -0.97451,-1.22428 -1.493742,-0.254085 -0.383392,0.716372 -0.15741,1.789444 0.376844,1.789444 0.173267,0 0.321246,0.357188 0.328842,0.79375 0.01189,0.682918 0.08033,0.640941 0.490213,-0.300637 0.262025,-0.601913 0.396053,-1.514726 0.297843,-2.028472 z M 51.860851,88.004362 c 0,-0.184327 -0.170656,-0.392024 -0.379236,-0.46155 -0.20858,-0.06953 -0.379236,0.138169 -0.379236,0.46155 0,0.323381 0.170656,0.531079 0.379236,0.46155 0.20858,-0.06953 0.379236,-0.277224 0.379236,-0.46155 z m 18.820696,-5.23287 c 0,-0.919533 -0.691762,-0.861826 -0.823437,0.06869 -0.08081,0.571118 0.03009,0.783715 0.352778,0.676157 0.258861,-0.08629 0.470659,-0.421469 0.470659,-0.744847 z M 46.275079,112.89517 c -1.62828,-0.73926 -2.581034,-2.17088 -2.581034,-3.87828 0,-0.89068 0.207995,-1.15802 1.234722,-1.58701 1.322672,-0.55265 1.515605,-1.09126 0.760703,-2.12365 -0.32929,-0.45033 -0.760138,-0.59356 -1.411111,-0.46912 -0.807245,0.15431 -0.937092,0.0598 -0.937092,-0.68192 0,-0.78744 0.09802,-0.83973 1.146528,-0.61156 1.806668,0.39315 2.529631,1.07186 2.576403,2.41872 0.03653,1.05193 -0.133614,1.30217 -1.350344,1.986 -1.307741,0.735 -1.379764,0.85994 -1.188,2.06089 0.225132,1.40991 1.399692,2.57022 3.183769,3.14512 0.604834,0.1949 0.861575,0.36708 0.570533,0.38263 -0.291041,0.0156 -1.193326,-0.27327 -2.005077,-0.64182 z M 42.37715,100.96895 c -0.13003,-0.33955 -0.601297,-1.155458 -1.047261,-1.813124 -0.445964,-0.657666 -0.810844,-1.420675 -0.810844,-1.69558 0,-0.892179 2.189865,-2.577144 3.341815,-2.571316 2.027675,0.01027 2.164772,0.381261 1.08218,2.9285 -0.536746,1.262916 -0.874151,2.46084 -0.74979,2.66206 0.124361,0.20123 -0.0854,0.53258 -0.466132,0.73634 -0.931705,0.49863 -1.074472,0.47252 -1.349968,-0.24688 z m 49.367648,-8.290283 c 0.0077,-3.228026 0.166091,-5.923338 0.362578,-6.169118 0.191918,-0.240064 0.256787,-0.676626 0.144155,-0.970139 -0.269293,-0.701769 0.710572,-0.704889 1.41097,-0.0045 0.819422,0.819423 1.186717,0.629312 0.961334,-0.497587 -0.21027,-1.051346 0.419954,-3.559356 0.894412,-3.559356 0.145157,0 0.625715,0.385107 1.0679,0.855794 0.647393,0.689116 0.817129,1.30493 0.871499,3.161857 0.03714,1.268335 0.168709,2.407251 0.292382,2.530921 0.464065,0.464068 0.971741,-0.274493 0.762297,-1.108985 -0.237854,-0.947681 0.444203,-2.970143 1.001656,-2.970143 0.194828,0 0.251185,0.386623 0.127938,0.877683 -0.1218,0.485281 -0.0206,1.204638 0.226339,1.608985 0.377732,0.618502 0.351402,0.802008 -0.170737,1.189683 -0.339549,0.252105 -0.617362,0.639314 -0.617362,0.860456 0,0.221146 -0.3175,0.402082 -0.705555,0.402082 -0.388056,0 -0.705556,-0.170391 -0.705556,-0.378643 0,-0.208255 -0.276588,-0.325381 -0.614641,-0.260276 -0.672543,0.129519 -1.041795,1.369328 -1.107511,3.718585 -0.05856,2.093623 -0.989266,4.334711 -2.273801,5.475196 -1.884486,1.673158 -1.943259,1.528 -1.928297,-4.762501 z m -43.601781,2.268369 c -0.09833,-0.1591 -1.33801,-0.743243 -2.754848,-1.298096 -3.754415,-1.470282 -5.826581,-3.6778 -5.515411,-5.875669 0.103505,-0.731073 0.363188,-0.85443 2.233787,-1.061109 1.164167,-0.128626 2.258214,-0.0982 2.431216,0.06761 0.444608,0.42612 -0.756231,2.812094 -1.415301,2.812094 -0.326616,0 -0.487916,0.242902 -0.409961,0.617361 0.08374,0.402273 0.40517,0.58717 0.922578,0.530708 0.436731,-0.04766 1.164189,0.155872 1.616574,0.452283 0.578086,0.378777 1.245135,0.471357 2.24463,0.311531 1.205103,-0.192705 1.481077,-0.117221 1.808547,0.494665 0.509926,0.952803 0.488488,1.12123 -0.142727,1.12123 -0.291042,0 -0.529167,0.163731 -0.529167,0.363848 0,0.20012 0.238125,0.455228 0.529167,0.56691 0.766879,0.29428 0.649915,1.185908 -0.155568,1.185908 -0.376605,0 -0.765186,-0.130171 -0.863516,-0.28927 z m 53.239573,-9.668539 c 0.0934,-0.247024 -0.10857,-1.001807 -0.44891,-1.677295 -0.60847,-1.207656 -0.60523,-1.241569 0.19395,-2.031429 0.95627,-0.945133 0.69783,-1.648635 -0.49562,-1.349099 l -0.840608,0.210981 0.601148,-1.328924 c 1.20116,-2.655373 1.74869,-2.87116 2.07692,-0.818545 0.20635,1.290464 0.31434,1.400151 1.4762,1.499306 1.75792,0.150024 1.7888,0.816369 0.10967,2.366531 -0.81867,0.7558 -1.4474,1.660864 -1.4474,2.08357 0,0.411034 -0.31393,0.915342 -0.69762,1.120686 -0.53392,0.285746 -0.65775,0.267964 -0.52773,-0.07578 z m -2.47882,-2.389413 c 0.119917,-0.194028 0.288037,-0.352778 0.373599,-0.352778 0.08556,0 0.155568,0.15875 0.155568,0.352778 0,0.194028 -0.16812,0.352778 -0.373599,0.352778 -0.205479,0 -0.275484,-0.15875 -0.155568,-0.352778 z m -6.879167,-4.179133 c 0,-0.570701 1.111995,-2.523645 1.436949,-2.523645 0.179818,0 0.32694,-0.289724 0.32694,-0.643832 0,-0.354107 0.319441,-0.94942 0.70987,-1.322916 0.39043,-0.373497 0.906368,-0.884989 1.146528,-1.136648 1.985367,-2.080417 3.884193,-3.918612 4.81135,-4.657715 0.60848,-0.48507 1.06535,-1.125826 1.01527,-1.423902 -0.15472,-0.920777 2.81678,-4.128202 3.98314,-4.299387 1.47054,-0.21583 1.35358,0.352298 -0.88305,4.28934 -1.05429,1.855825 -2.18278,4.048914 -2.50775,4.873532 -0.32497,0.824618 -0.73237,1.499306 -0.90533,1.499306 -0.17296,0 -0.31447,0.466881 -0.31447,1.037513 0,0.570633 -0.18328,1.150786 -0.40729,1.28923 -0.23652,0.14618 -0.3121,0.09771 -0.18027,-0.115597 0.12486,-0.202022 0.004,-0.552106 -0.267794,-0.777965 -0.391608,-0.325005 -0.705164,-0.204583 -1.503405,0.577389 -0.554729,0.543422 -1.281038,1.378007 -1.614018,1.854633 -0.594219,0.850565 -0.615195,0.853827 -1.134131,0.176389 -0.522605,-0.682227 -0.535902,-0.681507 -1.15049,0.06226 -0.908053,1.098917 -2.562049,1.900732 -2.562049,1.242017 z M 91.75572,71.098298 c 0.05087,-0.761113 0.297857,-1.451338 0.548855,-1.533833 0.336296,-0.110531 0.393379,0.114322 0.216976,0.854675 -0.426949,1.791878 -0.866246,2.181456 -0.765831,0.679158 z m -29.834821,0.619489 c -0.129353,-0.129351 -0.225125,-0.565914 -0.212824,-0.970139 0.02057,-0.675777 0.04957,-0.66692 0.360356,0.110015 0.345479,0.863677 0.273815,1.281474 -0.147532,0.860124 z m 18.814815,-4.350926 c -0.984187,-1.929167 -0.715377,-2.197977 0.298503,-0.298504 0.427655,0.801191 0.705263,1.528998 0.616913,1.617349 -0.08835,0.08835 -0.500288,-0.505129 -0.915416,-1.318845 z m -14.995015,0.350615 c -0.700077,-0.773575 -0.521567,-1.264866 0.339521,-0.934435 0.299409,0.114895 0.544382,0.531381 0.544382,0.925526 0,0.890226 -0.08554,0.891088 -0.883903,0.0089 z m 8.997792,-4.739517 c 0,-0.302492 0.15875,-0.549986 0.352778,-0.549986 0.194028,0 0.352778,0.14938 0.352778,0.331957 0,0.182577 -0.15875,0.430071 -0.352778,0.549987 -0.194028,0.119916 -0.352778,-0.02946 -0.352778,-0.331958 z m -9.422854,-1.74898 c 0.08339,-1.54494 0.833554,-2.259245 1.878376,-1.788604 0.582874,0.262557 0.545211,0.316118 -0.303967,0.432271 -0.71441,0.09772 -1.023998,0.381536 -1.177385,1.07937 -0.356507,1.621935 -0.474053,1.703934 -0.397024,0.276963 z m 8.011743,0.434642 c 0,-0.16169 0.238125,-0.293982 0.529167,-0.293982 0.291041,0 0.529166,0.132292 0.529166,0.293982 0,0.16169 -0.238125,0.293981 -0.529166,0.293981 -0.291042,0 -0.529167,-0.132291 -0.529167,-0.293981 z m 23.371967,-2.110349 c -0.56169,-0.561691 0.446496,-2.502117 1.221359,-2.35071 0.677104,0.132306 0.894433,1.227266 0.419661,2.114384 -0.392116,0.732677 -1.049934,0.827411 -1.64102,0.236326 z M 84.083466,56.012695 c -0.129378,-0.515488 -0.179868,-1.227619 -0.112194,-1.582514 0.156136,-0.818846 1.703331,-1.106808 1.703331,-0.317022 0,0.304536 -0.233144,0.553702 -0.518097,0.553702 -0.305872,0 -0.438284,0.207978 -0.323253,0.50774 0.107159,0.279256 0.03524,0.79295 -0.159858,1.141541 -0.31816,0.568519 -0.378922,0.537262 -0.589929,-0.303447 z m 4.060582,-1.140592 c 0,-0.886618 0.415212,-1.616353 0.919688,-1.616353 0.682985,0 0.625687,1.636881 -0.0666,1.902535 -0.783974,0.30084 -0.85309,0.277654 -0.85309,-0.286182 z"
         id="path828"
         inkscape:connector-curvature="0" />
    </g>
  </g>
</svg>
